<svg width="215" height="151" viewBox="0 0 215 151" fill="none" xmlns="http://www.w3.org/2000/svg">
<path d="M99.5037 48.9933C99.5037 48.9933 101.744 50.7533 103.056 51.9373C102.96 52.2893 102.64 52.4493 102.192 52.4493H86.2237L85.9677 51.5533H97.5837L99.5037 48.9933ZM105.168 35.0093C104.976 35.3613 104.624 35.5213 103.824 35.2973C99.0557 43.0413 90.1917 49.9213 76.2397 52.4173L76.0477 51.9693C88.4637 48.1293 96.8477 40.5133 100.752 32.4813L105.168 35.0093ZM88.9437 49.3453C88.9117 49.7613 88.5917 50.0493 87.8877 50.1453V56.5133C87.8877 57.0573 88.1437 57.2173 89.9037 57.2173H95.8557C97.9037 57.2173 99.7917 57.2173 100.592 57.1533C101.296 57.1213 101.584 56.9933 101.872 56.6733C102.32 56.1613 102.832 55.0733 103.536 53.2813H103.888L103.984 56.7053C105.296 57.0893 105.68 57.5053 105.68 58.2093C105.68 59.9693 104.016 60.4813 95.5357 60.4813H89.7757C85.4557 60.4813 84.2077 60.0333 84.2077 57.2493V48.9613L88.9437 49.3453ZM102.576 41.3773C102.576 41.3773 104.848 43.1373 106.224 44.3533C106.128 44.7053 105.808 44.8653 105.328 44.8653H76.6877L76.4317 43.9373H100.592L102.576 41.3773ZM94.7357 34.9133C94.7357 34.9133 96.9437 36.6413 98.2557 37.8573C98.1597 38.2093 97.8397 38.3693 97.3597 38.3693H79.9197L79.6637 37.4413H92.7837L94.7357 34.9133ZM91.4397 32.1933C91.3757 32.6413 91.1517 32.8973 90.4157 33.0253V44.3533H86.6397V31.8093L91.4397 32.1933ZM137.968 45.5053C137.776 45.6973 137.264 45.8253 136.72 45.5053C135.44 46.1773 132.816 47.3293 130.64 48.0973L130.416 47.8413C131.824 46.1133 133.712 43.3293 134.48 41.9213L137.968 45.5053ZM128.304 39.5853C128.208 39.9053 127.824 40.0653 127.152 40.1613V42.2733C127.024 42.2733 126.416 42.2733 123.76 42.2733V38.4653L128.304 39.5853ZM126.32 40.9933L127.152 41.5053V58.7213L123.92 59.2973L125.36 58.1773C125.712 60.2893 124.72 61.3773 123.952 61.7613L122.288 58.1453C123.568 57.5053 123.76 57.2173 123.76 56.5133V40.9933H126.32ZM122.704 58.1133C124.176 57.7613 127.536 56.8013 130.864 55.7773L130.96 56.1613C129.744 57.1533 127.248 59.1693 124.4 61.1213L122.704 58.1133ZM110 52.1613C110.48 52.1613 110.608 52.1613 110.96 51.5213C111.664 50.3373 111.664 50.3373 117.424 37.6973L117.968 37.8253C116.72 41.6973 114.48 48.8013 114.032 50.4653C113.776 51.5213 113.552 52.6413 113.584 53.4413C113.616 55.1693 114.896 56.3533 114.8 59.2013C114.736 60.8333 113.68 61.8573 112.208 61.8573C111.472 61.8573 110.768 61.3773 110.544 60.1933C111.152 56.8013 110.992 53.8253 110.224 53.3133C109.776 52.9933 109.264 52.8653 108.56 52.8013V52.1613C108.56 52.1613 109.648 52.1613 110 52.1613ZM108.176 39.4573C116.4 40.7693 113.168 46.7213 110.064 44.2893C109.872 42.6253 108.848 40.8333 107.92 39.6493L108.176 39.4573ZM110.928 32.1293C119.792 33.3453 116.688 39.8093 113.296 37.3773C112.944 35.5853 111.728 33.6333 110.64 32.3533L110.928 32.1293ZM129.968 40.0013C130.864 48.0973 133.648 55.1373 138.832 57.8893L138.768 58.2093C137.52 58.6253 136.4 59.9053 135.888 61.7933C131.12 57.4413 129.936 50.7213 129.488 40.0653L129.968 40.0013ZM137.52 39.8093C137.136 40.0973 136.464 40.1293 135.536 39.8093C132.848 40.3213 128.464 40.6413 124.848 40.5453L124.752 40.0973C127.952 39.2973 131.952 37.6973 133.968 36.5133L137.52 39.8093ZM137.68 35.1693C137.328 35.4573 136.624 35.5213 135.632 35.1693C131.696 35.9373 125.328 36.6093 120.016 36.6733L119.92 36.2253C124.752 35.2333 130.864 33.2813 134 31.8093L137.68 35.1693ZM122.736 35.9373C122.64 36.1613 122.352 36.2573 121.904 36.3213V44.0013C121.904 49.6333 121.488 57.0253 115.216 61.9853L114.832 61.6333C118.16 56.3213 118.48 49.9213 118.48 43.9053V34.0173L122.736 35.9373Z" fill="white"/>
<path d="M11.5186 101.033C11.4333 100.755 11.3906 100.521 11.3906 100.329C11.3906 100.115 11.4013 99.8806 11.4226 99.6246C11.444 99.3686 11.4866 99.0166 11.5506 98.5686C11.636 98.1206 11.7853 97.6832 11.9986 97.2566C12.212 96.8086 12.4573 96.3819 12.7346 95.9766C13.012 95.5712 13.364 95.1979 13.7906 94.8566C14.2386 94.5152 14.7293 94.2166 15.2626 93.9606C16.3933 93.4059 17.7693 93.1286 19.3906 93.1286C22.6546 93.1286 25.3106 94.2166 27.3586 96.3926C29.428 98.5472 30.4626 101.31 30.4626 104.681C30.4626 108.051 29.2466 110.857 26.8146 113.097C24.3826 115.315 21.3 116.425 17.5666 116.425C13.8333 116.425 10.7293 115.315 8.25464 113.097C5.80131 110.878 4.57464 107.998 4.57464 104.457C4.57464 102.174 5.10797 100.147 6.17464 98.3766C7.24131 96.6059 8.76664 95.2192 10.7506 94.2166L10.9426 94.5046C9.55597 95.4219 8.55331 96.7446 7.93464 98.4726C7.33731 100.201 7.03864 102.035 7.03864 103.977C7.03864 107.582 8.01997 110.398 9.98264 112.425C11.9453 114.451 14.4626 115.465 17.5346 115.465C20.6066 115.465 23.1133 114.451 25.0546 112.425C27.0173 110.377 27.9986 107.689 27.9986 104.361C27.9986 101.481 27.22 99.0486 25.6626 97.0646C24.1266 95.0806 21.9506 94.0886 19.1346 94.0886C17.876 94.0886 16.7346 94.3126 15.7106 94.7606C13.8546 95.5499 12.628 96.8512 12.0306 98.6646C11.86 99.1979 11.7746 99.6566 11.7746 100.041C11.7746 100.425 11.796 100.734 11.8386 100.969L11.5186 101.033ZM34.0844 115.657C34.6391 115.657 35.1084 115.465 35.4924 115.081C35.8977 114.675 36.1111 114.195 36.1324 113.641V95.9126C36.1111 95.3579 35.8977 94.8886 35.4924 94.5046C35.1084 94.0992 34.6391 93.8966 34.0844 93.8966H33.6684V93.5766H40.6764V93.8966H40.2604C39.4924 93.8966 38.9057 94.2272 38.5004 94.8886C38.3084 95.2086 38.2124 95.5499 38.2124 95.9126V114.985H42.7884C44.3671 114.985 45.5724 114.633 46.4044 113.929C47.2364 113.225 47.9297 112.179 48.4844 110.793H48.8044L46.9484 115.977H33.6684V115.657H34.0844ZM62.0164 93.5766C65.4297 93.5766 68.1924 94.6112 70.3044 96.6806C72.4377 98.7286 73.5044 101.427 73.5044 104.777C73.5044 108.126 72.4377 110.835 70.3044 112.905C68.1924 114.953 65.4297 115.977 62.0164 115.977H51.1684V115.657H51.5844C52.1391 115.657 52.6084 115.465 52.9924 115.081C53.3977 114.675 53.6111 114.195 53.6324 113.641V95.7206C53.6324 95.2086 53.4191 94.7819 52.9924 94.4406C52.5871 94.0779 52.1177 93.8966 51.5844 93.8966H51.2004L51.1684 93.5766H62.0164ZM55.7124 94.5366V115.017H62.0164C63.8084 115.017 65.3871 114.59 66.7524 113.737C68.1391 112.883 69.2057 111.689 69.9524 110.153C70.7204 108.595 71.1044 106.803 71.1044 104.777C71.1044 101.705 70.2617 99.2299 68.5764 97.3526C66.9124 95.4752 64.7257 94.5366 62.0164 94.5366H55.7124ZM86.8689 107.465C85.7596 108.915 85.2049 110.483 85.2049 112.169C85.2049 114.174 86.0476 115.731 87.7329 116.841C88.7142 117.502 89.8236 117.833 91.0609 117.833C92.3196 117.833 93.4076 117.587 94.3249 117.097C96.0529 116.201 97.0236 114.697 97.2369 112.585C97.2582 112.435 97.2689 112.286 97.2689 112.137C97.2689 111.347 97.0449 110.494 96.5969 109.577C96.1702 108.659 95.4662 107.817 94.4849 107.049L88.7249 102.505C87.4662 101.523 86.8369 100.254 86.8369 98.6966C86.8369 97.1392 87.3382 95.8272 88.3409 94.7606C89.3436 93.6726 90.6982 93.1286 92.4049 93.1286C93.2582 93.1286 94.1862 93.2352 95.1889 93.4486H96.4689L96.5329 97.3846H96.2129C96.1916 96.3606 95.8182 95.5606 95.0929 94.9846C94.3889 94.3872 93.4929 94.0886 92.4049 94.0886C91.3382 94.0886 90.4422 94.4512 89.7169 95.1766C88.9916 95.8806 88.6289 96.7979 88.6289 97.9286C88.6289 99.0379 89.0982 99.9659 90.0369 100.713L95.9569 105.385C98.3036 107.241 99.4769 109.481 99.4769 112.105C99.4769 114.067 98.6982 115.753 97.1409 117.161C95.7969 118.377 94.0049 118.985 91.7649 118.985C90.3996 118.985 89.1836 118.729 88.1169 118.217C86.1116 117.278 84.9062 115.678 84.5009 113.417C84.4369 113.075 84.4049 112.649 84.4049 112.137C84.4049 111.603 84.5542 110.889 84.8529 109.993C85.1516 109.075 85.7276 108.158 86.5809 107.241L86.8689 107.465ZM113.967 116.425C110.597 116.403 107.845 115.326 105.711 113.193C103.599 111.059 102.543 108.254 102.543 104.777C102.543 101.278 103.599 98.4619 105.711 96.3286C107.845 94.1952 110.661 93.1286 114.159 93.1286C117.018 93.1286 119.546 93.8539 121.743 95.3046L122.383 99.8166H122.095C121.626 97.9819 120.677 96.5739 119.247 95.5926C117.818 94.5899 116.122 94.0886 114.159 94.0886C111.365 94.0886 109.125 95.0592 107.439 97.0006C105.775 98.9419 104.943 101.513 104.943 104.713C104.943 107.913 105.765 110.494 107.407 112.457C109.071 114.398 111.258 115.401 113.967 115.465C116.357 115.465 118.351 114.814 119.951 113.513C121.679 112.105 122.725 109.811 123.087 106.633H123.343L122.959 111.657C121.018 114.835 118.021 116.425 113.967 116.425ZM142.44 115.657C142.995 115.657 143.464 115.465 143.848 115.081C144.253 114.675 144.467 114.206 144.488 113.673V105.385H131.4V113.673C131.4 114.227 131.603 114.697 132.008 115.081C132.413 115.465 132.893 115.657 133.448 115.657H133.864V115.977H126.856V115.657H127.272C127.827 115.657 128.296 115.465 128.68 115.081C129.085 114.697 129.299 114.227 129.32 113.673V95.8806C129.299 95.3259 129.085 94.8566 128.68 94.4726C128.296 94.0886 127.827 93.8966 127.272 93.8966H126.856V93.5766H133.864V93.8966H133.448C132.893 93.8966 132.413 94.0886 132.008 94.4726C131.624 94.8566 131.421 95.3259 131.4 95.8806V104.425H144.488V95.8806C144.467 95.1126 144.125 94.5366 143.464 94.1526C143.144 93.9819 142.803 93.8966 142.44 93.8966H142.024V93.5766H149.032V93.8966H148.616C148.061 93.8966 147.581 94.0992 147.176 94.5046C146.792 94.8886 146.589 95.3579 146.568 95.9126V113.673C146.589 114.227 146.792 114.697 147.176 115.081C147.581 115.465 148.061 115.657 148.616 115.657H149.032V115.977H142.024V115.657H142.44ZM155.046 96.3606C157.329 94.2059 160.283 93.1286 163.91 93.1286C167.558 93.1286 170.523 94.2059 172.806 96.3606C175.089 98.4939 176.23 101.299 176.23 104.777C176.23 108.254 175.089 111.07 172.806 113.225C170.523 115.358 167.558 116.425 163.91 116.425C160.283 116.425 157.329 115.358 155.046 113.225C152.763 111.07 151.622 108.254 151.622 104.777C151.622 101.299 152.763 98.4939 155.046 96.3606ZM156.774 112.521C158.587 114.483 160.966 115.465 163.91 115.465C166.854 115.465 169.222 114.483 171.014 112.521C172.827 110.558 173.734 107.977 173.734 104.777C173.734 101.577 172.827 98.9952 171.014 97.0326C169.222 95.0699 166.854 94.0886 163.91 94.0886C160.966 94.0886 158.587 95.0699 156.774 97.0326C154.982 98.9952 154.086 101.577 154.086 104.777C154.086 107.977 154.982 110.558 156.774 112.521ZM172.077 96.3606C174.36 94.2059 177.315 93.1286 180.941 93.1286C184.589 93.1286 187.555 94.2059 189.837 96.3606C192.12 98.4939 193.261 101.299 193.261 104.777C193.261 108.254 192.12 111.07 189.837 113.225C187.555 115.358 184.589 116.425 180.941 116.425C177.315 116.425 174.36 115.358 172.077 113.225C169.795 111.07 168.653 108.254 168.653 104.777C168.653 101.299 169.795 98.4939 172.077 96.3606ZM173.805 112.521C175.619 114.483 177.997 115.465 180.941 115.465C183.885 115.465 186.253 114.483 188.045 112.521C189.859 110.558 190.765 107.977 190.765 104.777C190.765 101.577 189.859 98.9952 188.045 97.0326C186.253 95.0699 183.885 94.0886 180.941 94.0886C177.997 94.0886 175.619 95.0699 173.805 97.0326C172.013 98.9952 171.117 101.577 171.117 104.777C171.117 107.977 172.013 110.558 173.805 112.521ZM196.209 115.657C196.764 115.657 197.233 115.465 197.617 115.081C198.023 114.675 198.236 114.195 198.257 113.641V95.9126C198.236 95.3579 198.023 94.8886 197.617 94.5046C197.233 94.0992 196.764 93.8966 196.209 93.8966H195.793V93.5766H202.801V93.8966H202.385C201.617 93.8966 201.031 94.2272 200.625 94.8886C200.433 95.2086 200.337 95.5499 200.337 95.9126V114.985H204.913C206.492 114.985 207.697 114.633 208.529 113.929C209.361 113.225 210.055 112.179 210.609 110.793H210.929L209.073 115.977H195.793V115.657H196.209Z" fill="white"/>
</svg>
