<svg width="230" height="151" viewBox="0 0 230 151" fill="none" xmlns="http://www.w3.org/2000/svg">
<path d="M83.8169 33.2087V57.2087C83.8169 59.8968 83.2409 61.4008 78.6649 61.8168C78.5369 60.5688 78.3129 59.6728 77.7369 59.0648C77.1289 58.4887 76.3289 58.0407 74.4729 57.7527V57.3047C74.4729 57.3047 78.4409 57.5607 79.2089 57.5607C79.8169 57.5607 80.0089 57.3687 80.0089 56.9527V31.8647L84.9689 32.3447C84.8729 32.7927 84.6489 33.0807 83.8169 33.2087ZM67.3689 41.2087H76.4889V42.1367H67.6569L67.3689 41.2087ZM74.9529 41.2087H74.6009L76.5209 39.2567L79.9449 42.1687C79.6889 42.4887 79.4009 42.6167 78.6649 42.6807C77.1929 48.9527 73.9609 55.1287 66.8889 58.7767L66.6009 58.4247C71.4969 54.2648 74.0569 47.5447 74.9529 41.2087ZM83.8169 36.5047C85.7369 47.2247 91.4969 52.1847 97.1609 54.9688L97.0009 55.2887C95.4329 55.5767 94.2489 56.9207 93.7049 58.6807C88.3609 54.2327 84.9689 48.5367 83.5609 36.6327L83.8169 36.5047ZM92.0089 37.2407L96.4249 40.0887C96.2649 40.4087 95.9449 40.5687 95.1769 40.4407C93.0009 42.2647 89.6089 44.7927 86.3129 46.5207L85.9929 46.2007C88.2329 43.6087 90.8249 39.6407 92.0089 37.2407ZM99.3689 47.3207H111.785L113.609 44.9527C113.609 44.9527 115.689 46.5847 116.937 47.7367C116.873 48.0887 116.521 48.2487 116.073 48.2487H99.6249L99.3689 47.3207ZM106.281 43.4167L111.017 43.8647C110.985 44.2807 110.729 44.5687 109.961 44.6967V60.8248C109.961 61.1448 108.329 61.8488 106.985 61.8488H106.281V43.4167ZM105.225 47.3207H109.289V47.8327C107.497 52.6967 103.913 56.5687 98.9849 59.3208L98.6649 58.9367C101.833 55.9287 104.073 51.5127 105.225 47.3207ZM109.897 50.1047C119.241 51.5447 116.425 58.2327 113.033 55.8647C112.585 53.8807 111.049 51.7047 109.641 50.3287L109.897 50.1047ZM100.137 37.7527C107.273 40.1528 103.913 45.5287 101.289 43.0647C101.385 41.2727 100.617 39.2887 99.8169 37.9447L100.137 37.7527ZM105.065 37.0167C112.105 39.3207 108.777 44.6327 106.185 42.2007C106.313 40.5047 105.577 38.4887 104.745 37.1767L105.065 37.0167ZM112.905 31.7687L116.617 35.2887C116.265 35.5767 115.561 35.6407 114.537 35.2247C110.729 36.0887 104.777 36.7927 99.5609 36.8247L99.4649 36.3767C104.201 35.3847 109.993 33.3687 112.905 31.7687ZM112.457 36.6327L116.873 38.4887C116.713 38.8727 116.265 39.0967 115.593 39.0327C114.121 40.9207 112.233 42.6167 110.409 43.6727L110.025 43.4167C110.889 41.7527 111.849 39.0967 112.457 36.6327ZM124.041 32.1847L128.425 34.9687C128.201 35.2887 127.881 35.3847 127.145 35.2247C123.849 38.0407 119.785 40.3127 115.657 41.7847L115.433 41.3368C118.729 39.0647 121.641 35.8327 124.041 32.1847ZM124.233 39.8647L128.841 42.5527C128.617 42.9047 128.265 42.9688 127.561 42.8727C124.233 46.2327 120.073 48.6647 115.593 50.2007L115.369 49.7527C118.953 47.3847 121.897 44.0247 124.233 39.8647ZM124.617 48.8567L129.481 51.2887C129.257 51.6407 128.937 51.7687 128.137 51.6727C124.265 57.0167 119.465 60.0568 113.289 61.8808L113.097 61.4008C118.057 58.6807 121.833 54.8407 124.617 48.8567ZM150.409 36.0567C150.409 36.0567 152.233 37.7207 153.257 38.8407C153.193 39.1927 152.841 39.3527 152.425 39.3527H138.857L138.601 38.4247H148.841L150.409 36.0567ZM155.657 34.4567V35.3847H136.073V34.4567H155.657ZM134.153 34.1367V32.9527L138.377 34.4567H137.801V42.9688C137.801 48.8887 137.449 56.6327 131.113 61.7528L130.729 61.5288C133.897 56.0567 134.153 49.2087 134.153 43.0007V34.1367ZM153.513 34.4567L155.401 32.3127L159.081 35.3847C158.857 35.6407 158.377 35.8647 157.641 35.9607C157.161 42.1687 157.321 52.9527 159.177 55.3527C159.433 55.6727 159.593 55.6087 159.785 55.1607C160.169 54.0727 160.521 52.8567 160.809 51.6087L161.129 51.6727L160.745 57.4007C161.449 59.3528 161.481 60.6968 160.809 61.1448C159.369 62.0728 157.833 61.0168 156.873 59.5768C153.705 55.4487 153.705 44.0567 153.897 34.4567H153.513ZM149.417 52.7607C157.897 56.3767 154.633 62.9048 151.529 60.0568C151.465 57.6567 150.249 54.9047 149.065 52.9527L149.417 52.7607ZM136.777 56.6007C139.657 56.6007 146.249 56.3127 153.225 55.9607V56.3767C150.249 57.3367 145.961 58.4887 139.529 60.0247C139.337 60.4408 138.953 60.6648 138.601 60.7288L136.777 56.6007ZM147.337 38.7447V57.3047H144.041V38.7447H147.337ZM149.161 43.1927L150.537 41.7847L153.353 43.9287C153.225 44.1207 152.841 44.3127 152.361 44.4087V51.3207C152.329 51.5447 150.857 52.0887 149.929 52.0887H149.417V43.1927H149.161ZM142.025 52.0247C142.025 52.2807 140.745 52.8887 139.561 52.8887H139.145V41.9767L142.185 43.1927H151.113V44.1207H142.025V52.0247ZM151.081 50.0087V50.9047H140.425V50.0087H151.081Z" fill="white"/>
<path d="M38.7378 85.792C38.8871 85.792 39.0258 85.792 39.1538 85.792V86.112C38.1511 86.1547 37.2018 86.3893 36.3058 86.816C35.4098 87.2427 34.6524 87.7547 34.0338 88.352C33.4151 88.928 32.8391 89.632 32.3058 90.464C31.4524 91.7867 30.7271 93.3013 30.1298 95.008L23.9858 112.832C23.5591 114.176 23.3244 115.36 23.2818 116.384H22.9938L16.4658 98.112L11.3138 114.24C10.5458 116.651 9.30842 118.528 7.60175 119.872C6.36442 120.875 4.97775 121.376 3.44175 121.376C2.90842 121.376 2.34308 121.312 1.74575 121.184L1.80975 120.864C2.12975 120.928 2.49242 120.96 2.89775 120.96C3.32442 120.96 3.87908 120.832 4.56175 120.576C5.26575 120.32 5.95908 119.861 6.64175 119.2C8.02842 117.856 9.09508 116.171 9.84175 114.144L3.37775 95.872C3.12175 95.232 2.72708 94.752 2.19375 94.432C1.66042 94.0907 1.11642 93.92 0.56175 93.92H0.30575V93.6H7.40975V93.92H7.12175C6.67375 93.92 6.33242 94.0693 6.09775 94.368C5.88442 94.6453 5.77775 94.912 5.77775 95.168C5.77775 95.424 5.80975 95.6587 5.87375 95.872L10.7378 111.456L16.6898 93.088L16.9778 93.12L23.3138 110.848L28.0498 95.008C28.6044 93.152 29.4578 91.4773 30.6098 89.984C32.7431 87.1893 35.4524 85.792 38.7378 85.792ZM51.8808 115.68H52.1368V116H44.9368V115.68H45.2248C45.6728 115.68 46.0034 115.541 46.2168 115.264C46.4514 114.965 46.5688 114.688 46.5688 114.432C46.5688 114.176 46.5261 113.92 46.4408 113.664L44.3928 108.224H35.7528L33.6088 113.696C33.5234 113.952 33.4808 114.208 33.4808 114.464C33.4808 114.699 33.5874 114.965 33.8008 115.264C34.0354 115.541 34.3768 115.68 34.8248 115.68H35.1128V116H28.6807V115.68H28.9688C29.5021 115.68 30.0248 115.509 30.5368 115.168C31.0488 114.827 31.4648 114.325 31.7848 113.664L39.0168 96.448C39.8061 94.72 40.2008 93.6213 40.2008 93.152H40.4888L49.0648 113.664C49.3634 114.325 49.7688 114.827 50.2808 115.168C50.7928 115.509 51.3261 115.68 51.8808 115.68ZM36.1368 107.264H44.0088L40.1688 96.992L36.1368 107.264ZM68.348 96.448C68.348 95.936 68.1667 95.4987 67.804 95.136C67.4413 94.752 67.0147 94.5493 66.524 94.528H60.444V113.696C60.4653 114.251 60.668 114.72 61.052 115.104C61.4573 115.488 61.9373 115.68 62.492 115.68H62.908V116H55.9V115.68H56.316C56.8707 115.68 57.34 115.488 57.724 115.104C58.1293 114.72 58.3427 114.261 58.364 113.728V94.528H52.284C51.772 94.5493 51.3347 94.752 50.972 95.136C50.6307 95.4987 50.46 95.936 50.46 96.448V96.992L50.14 97.024V92.992C50.46 93.12 51.0147 93.248 51.804 93.376C52.5933 93.504 53.3187 93.568 53.98 93.568H64.796C65.8413 93.568 66.7053 93.4933 67.388 93.344C68.092 93.1733 68.5187 93.056 68.668 92.992V97.024L68.348 96.992V96.448ZM71.6173 115.68C72.1719 115.68 72.6413 115.488 73.0253 115.104C73.4306 114.699 73.6439 114.219 73.6653 113.664V95.744C73.6653 95.232 73.4626 94.8053 73.0573 94.464C72.6519 94.1013 72.1719 93.92 71.6173 93.92H71.2333L71.2013 93.6H80.5773C81.2386 93.6 81.9533 93.536 82.7213 93.408C83.5106 93.28 84.0653 93.152 84.3853 93.024V97.056H84.0653V96.48C84.0653 95.968 83.8839 95.5307 83.5213 95.168C83.1799 94.8053 82.7639 94.6133 82.2733 94.592H75.7453V104.48H81.1533C81.5799 104.459 81.9426 104.299 82.2413 104C82.5399 103.701 82.6893 103.328 82.6893 102.88V102.432H83.0093V107.488H82.6893V107.008C82.6893 106.581 82.5399 106.219 82.2413 105.92C81.9639 105.621 81.6119 105.461 81.1853 105.44H75.7453V115.008H80.3213C81.8999 115.008 83.1053 114.656 83.9373 113.952C84.7693 113.248 85.4626 112.203 86.0173 110.816H86.3373L84.4813 116H71.2013V115.68H71.6173ZM95.9495 94.592H93.9015V113.664C93.9015 114.219 94.0935 114.699 94.4775 115.104C94.8828 115.488 95.3735 115.68 95.9495 115.68H96.3335L96.3655 116H89.3575V115.68H89.7735C90.3282 115.68 90.7975 115.488 91.1815 115.104C91.5868 114.72 91.8002 114.251 91.8215 113.696V95.936C91.8002 95.3813 91.5868 94.912 91.1815 94.528C90.7975 94.1227 90.3282 93.92 89.7735 93.92H89.3575V93.6H97.9975C99.9388 93.6 101.464 94.144 102.574 95.232C103.683 96.2987 104.238 97.696 104.238 99.424C104.238 101.131 103.704 102.613 102.638 103.872C101.592 105.109 100.312 105.728 98.7975 105.728C99.1175 105.877 99.4908 106.176 99.9175 106.624C100.366 107.051 100.76 107.499 101.102 107.968C102.936 110.592 104.131 112.213 104.686 112.832C105.24 113.429 105.635 113.845 105.87 114.08C106.104 114.293 106.36 114.507 106.638 114.72C106.915 114.933 107.192 115.104 107.47 115.232C108.088 115.531 108.75 115.68 109.454 115.68V116H107.694C106.776 116 105.923 115.84 105.134 115.52C104.344 115.179 103.747 114.837 103.342 114.496C102.958 114.133 102.616 113.792 102.318 113.472C102.04 113.131 101.251 112.021 99.9495 110.144C98.6482 108.267 97.8908 107.2 97.6775 106.944C97.4642 106.667 97.2402 106.4 97.0055 106.144C96.3228 105.419 95.6402 105.056 94.9575 105.056V104.736C95.1282 104.757 95.3522 104.768 95.6295 104.768C95.9068 104.768 96.2482 104.757 96.6535 104.736C99.2988 104.672 100.963 103.563 101.646 101.408C101.774 100.981 101.838 100.587 101.838 100.224C101.838 99.84 101.838 99.5947 101.838 99.488C101.795 98.0587 101.422 96.9067 100.718 96.032C100.014 95.1573 99.0642 94.688 97.8695 94.624C97.3575 94.6027 96.7175 94.592 95.9495 94.592ZM121 116.448C117.63 116.427 114.878 115.349 112.744 113.216C110.632 111.083 109.576 108.277 109.576 104.8C109.576 101.301 110.632 98.4853 112.744 96.352C114.878 94.2187 117.694 93.152 121.192 93.152C124.051 93.152 126.579 93.8773 128.776 95.328L129.416 99.84H129.128C128.659 98.0053 127.71 96.5973 126.28 95.616C124.851 94.6133 123.155 94.112 121.192 94.112C118.398 94.112 116.158 95.0827 114.472 97.024C112.808 98.9653 111.976 101.536 111.976 104.736C111.976 107.936 112.798 110.517 114.44 112.48C116.104 114.421 118.291 115.424 121 115.488C123.39 115.488 125.384 114.837 126.984 113.536C128.712 112.128 129.758 109.835 130.12 106.656H130.376L129.992 111.68C128.051 114.859 125.054 116.448 121 116.448ZM136.673 96.384C138.955 94.2293 141.91 93.152 145.537 93.152C149.185 93.152 152.15 94.2293 154.433 96.384C156.715 98.5173 157.857 101.323 157.857 104.8C157.857 108.277 156.715 111.093 154.433 113.248C152.15 115.381 149.185 116.448 145.537 116.448C141.91 116.448 138.955 115.381 136.673 113.248C134.39 111.093 133.249 108.277 133.249 104.8C133.249 101.323 134.39 98.5173 136.673 96.384ZM138.401 112.544C140.214 114.507 142.593 115.488 145.537 115.488C148.481 115.488 150.849 114.507 152.641 112.544C154.454 110.581 155.361 108 155.361 104.8C155.361 101.6 154.454 99.0187 152.641 97.056C150.849 95.0933 148.481 94.112 145.537 94.112C142.593 94.112 140.214 95.0933 138.401 97.056C136.609 99.0187 135.713 101.6 135.713 104.8C135.713 108 136.609 110.581 138.401 112.544ZM160.805 115.68C161.359 115.68 161.829 115.488 162.213 115.104C162.618 114.699 162.831 114.219 162.853 113.664V95.936C162.831 95.3813 162.618 94.912 162.213 94.528C161.829 94.1227 161.359 93.92 160.805 93.92H160.389V93.6H167.397V93.92H166.981C166.213 93.92 165.626 94.2507 165.221 94.912C165.029 95.232 164.933 95.5733 164.933 95.936V115.008H169.509C171.087 115.008 172.293 114.656 173.125 113.952C173.957 113.248 174.65 112.203 175.205 110.816H175.525L173.669 116H160.389V115.68H160.805ZM180.516 96.384C182.799 94.2293 185.754 93.152 189.381 93.152C193.029 93.152 195.994 94.2293 198.277 96.384C200.559 98.5173 201.701 101.323 201.701 104.8C201.701 108.277 200.559 111.093 198.277 113.248C195.994 115.381 193.029 116.448 189.381 116.448C185.754 116.448 182.799 115.381 180.516 113.248C178.234 111.093 177.093 108.277 177.093 104.8C177.093 101.323 178.234 98.5173 180.516 96.384ZM182.245 112.544C184.058 114.507 186.437 115.488 189.381 115.488C192.325 115.488 194.693 114.507 196.485 112.544C198.298 110.581 199.205 108 199.205 104.8C199.205 101.6 198.298 99.0187 196.485 97.056C194.693 95.0933 192.325 94.112 189.381 94.112C186.437 94.112 184.058 95.0933 182.245 97.056C180.453 99.0187 179.557 101.6 179.557 104.8C179.557 108 180.453 110.581 182.245 112.544ZM210.825 94.592H208.777V113.664C208.777 114.219 208.969 114.699 209.353 115.104C209.758 115.488 210.249 115.68 210.825 115.68H211.209L211.241 116H204.233V115.68H204.649C205.203 115.68 205.673 115.488 206.057 115.104C206.462 114.72 206.675 114.251 206.697 113.696V95.936C206.675 95.3813 206.462 94.912 206.057 94.528C205.673 94.1227 205.203 93.92 204.649 93.92H204.233V93.6H212.873C214.814 93.6 216.339 94.144 217.449 95.232C218.558 96.2987 219.113 97.696 219.113 99.424C219.113 101.131 218.579 102.613 217.513 103.872C216.467 105.109 215.187 105.728 213.673 105.728C213.993 105.877 214.366 106.176 214.793 106.624C215.241 107.051 215.635 107.499 215.977 107.968C217.811 110.592 219.006 112.213 219.561 112.832C220.115 113.429 220.51 113.845 220.745 114.08C220.979 114.293 221.235 114.507 221.513 114.72C221.79 114.933 222.067 115.104 222.345 115.232C222.963 115.531 223.625 115.68 224.329 115.68V116H222.569C221.651 116 220.798 115.84 220.009 115.52C219.219 115.179 218.622 114.837 218.217 114.496C217.833 114.133 217.491 113.792 217.193 113.472C216.915 113.131 216.126 112.021 214.825 110.144C213.523 108.267 212.766 107.2 212.553 106.944C212.339 106.667 212.115 106.4 211.881 106.144C211.198 105.419 210.515 105.056 209.833 105.056V104.736C210.003 104.757 210.227 104.768 210.505 104.768C210.782 104.768 211.123 104.757 211.529 104.736C214.174 104.672 215.838 103.563 216.521 101.408C216.649 100.981 216.713 100.587 216.713 100.224C216.713 99.84 216.713 99.5947 216.713 99.488C216.67 98.0587 216.297 96.9067 215.593 96.032C214.889 95.1573 213.939 94.688 212.745 94.624C212.233 94.6027 211.593 94.592 210.825 94.592Z" fill="white"/>
</svg>
