<svg width="215" height="152" viewBox="0 0 215 152" fill="none" xmlns="http://www.w3.org/2000/svg">
<path d="M51.346 53.4406C52.498 57.1206 51.25 59.6166 49.682 60.4486C48.594 61.0566 47.058 60.7366 46.642 59.4886C46.322 58.3686 47.058 57.5046 48.082 57.0246C49.298 56.4806 50.77 55.0726 50.898 53.4086L51.346 53.4406ZM59.41 38.7846C59.09 39.1046 58.514 39.1686 57.618 38.9446C55.89 39.5526 53.01 40.2886 50.514 40.6406L50.386 40.2246C52.242 39.1686 54.61 37.3126 55.762 36.1286L59.41 38.7846ZM68.05 49.6646L69.874 47.9366L73.106 50.5926C72.882 50.8806 72.498 51.0406 71.826 51.1366C71.442 56.7686 70.706 59.6486 69.138 60.7686C68.21 61.4406 66.994 61.7926 65.33 61.7926C65.33 60.8006 65.234 59.9366 64.754 59.4566C64.274 58.9446 63.282 58.5606 62.066 58.3046V57.8886C63.25 57.9846 65.17 58.0806 65.778 58.0806C66.29 58.0806 66.546 58.0166 66.802 57.8246C67.506 57.2166 68.082 54.4006 68.37 49.6646H68.05ZM70.578 49.6646V50.5926H51.634L52.69 49.6646H70.578ZM56.114 48.9606C53.586 51.6166 49.33 54.4966 44.402 55.9686L44.178 55.6486C47.826 53.4406 51.09 49.7926 52.53 47.0406L57.682 48.2886C57.522 48.7046 57.138 48.9286 56.114 48.9606ZM56.37 41.0566C56.37 41.0566 58.066 42.3046 59.09 43.2646C59.026 43.6166 58.706 43.7766 58.258 43.7766H51.378V42.8486H54.93L56.37 41.0566ZM53.906 39.2966C53.81 39.6166 53.458 39.8086 52.786 39.9046V47.8726C52.754 48.1286 51.666 49.0566 49.778 49.0566H49.202V38.1126L53.906 39.2966ZM65.17 38.9126L66.834 37.1206L70.322 39.7446C70.162 39.9686 69.714 40.2246 69.138 40.3526V47.7446C69.106 47.9686 67.282 48.6086 66.098 48.6086H65.49V38.9126H65.17ZM67.058 42.7526V43.6486H60.914L60.626 42.7526H67.058ZM66.482 38.9126V39.8406H59.762L59.474 38.9126H66.482ZM62.034 51.7126C69.17 52.7686 66.77 57.9846 64.082 56.1286C63.826 54.6566 62.738 52.9286 61.746 51.9366L62.034 51.7126ZM57.522 52.2246C64.818 54.5606 61.65 60.0966 58.93 57.6646C58.962 55.8726 58.13 53.7606 57.202 52.4166L57.522 52.2246ZM53.714 52.7686C59.89 56.7046 55.954 61.8886 53.65 58.9766C54.098 56.9606 53.874 54.5926 53.33 52.8966L53.714 52.7686ZM67.442 46.4006V47.2966H51.09V46.4006H67.442ZM56.786 31.7446C64.818 31.5846 61.106 37.7606 57.874 35.1686C57.97 33.9846 57.394 32.6406 56.562 31.9366L56.786 31.7446ZM69.042 35.4566L70.93 33.6006L74.194 36.6726C73.938 36.9286 73.586 37.0246 72.946 37.0566C71.922 37.9846 70.194 39.1366 68.85 39.8086L68.562 39.6166C68.882 38.4646 69.266 36.5766 69.394 35.4566H69.042ZM48.882 33.8246C50.258 37.2806 49.298 39.7126 47.794 40.4806C46.77 40.9926 45.266 40.6726 44.914 39.4246C44.594 38.2726 45.298 37.4086 46.354 36.9606C47.378 36.4806 48.53 35.2326 48.434 33.8566L48.882 33.8246ZM70.994 35.4566V36.3846H48.274V35.4566H70.994ZM87.346 37.7926H86.29L86.642 37.6646C86.482 39.3926 86.002 42.8166 85.65 44.5446H85.874L84.914 45.7286L81.682 44.0326C82.066 43.6166 82.77 43.1686 83.282 42.9446L82.418 44.1286C82.802 42.4006 83.282 38.4326 83.378 36.3846L87.346 37.7926ZM92.05 56.6086C109.49 57.0566 103.378 63.5846 100.114 61.0886C98.61 59.7766 95.922 58.1446 91.954 57.0566L92.05 56.6086ZM91.378 58.8486C91.058 59.1686 90.45 59.2966 89.522 59.0406C86.77 60.2566 82.13 61.3446 77.906 61.7926L77.778 61.3446C81.394 60.1606 85.554 57.8566 87.57 56.1606L91.378 58.8486ZM85.554 56.3206C85.554 56.6406 83.954 57.4406 82.45 57.4406H81.906V44.8646L85.81 46.4006H99.858V47.2966H85.554V56.3206ZM96.466 46.4006L98.098 44.6406L101.458 47.2006C101.298 47.4246 100.978 47.6486 100.466 47.7126V55.9366C100.434 56.1926 98.61 56.8646 97.394 56.8646H96.754V46.4006H96.466ZM99.474 55.0726V55.9686H83.698V55.0726H99.474ZM99.634 52.1286V53.0566H83.826V52.1286H99.634ZM99.154 49.3126V50.2086H83.378V49.3126H99.154ZM93.138 37.7926C93.01 39.5846 92.754 42.4646 92.53 44.0966H89.266C89.49 42.4006 89.778 39.4886 89.842 37.7926H93.138ZM96.274 37.7926L97.618 36.1286L101.106 38.6566C100.882 38.9446 100.434 39.1686 99.762 39.2646C99.666 40.6406 99.442 43.1686 99.218 44.9286C98.418 45.3446 97.362 45.5046 95.826 45.2486C96.178 42.8806 96.466 39.6486 96.594 37.7926H96.274ZM97.426 43.6486V44.5446H83.538V43.6486H97.426ZM98.322 37.7926V38.7206H84.594V37.7926H98.322ZM102.77 38.8166C102.77 38.8166 104.722 40.1926 105.97 41.2166C105.874 41.5686 105.554 41.7286 105.106 41.7286H76.818L76.562 40.8006H101.01L102.77 38.8166ZM89.234 31.8726C96.786 31.6486 93.138 37.5366 90.002 35.0086C90.162 33.9206 89.714 32.6726 89.01 32.0646L89.234 31.8726ZM100.978 35.2646L102.802 33.4086L106.034 36.4806C105.81 36.7686 105.458 36.8326 104.818 36.8646C103.89 37.7286 102.258 38.8166 101.042 39.4566L100.722 39.2326C100.946 38.1446 101.234 36.3206 101.33 35.2646H100.978ZM80.914 33.6966C82.226 36.9286 81.394 39.2326 80.018 39.9686C79.026 40.4806 77.65 40.1606 77.298 39.0086C77.01 37.9526 77.682 37.1206 78.642 36.7046C79.602 36.2566 80.594 34.9766 80.466 33.6966H80.914ZM103.09 35.2646V36.1926H80.498V35.2646H103.09ZM110.354 39.7446H130.61L132.85 36.9286C132.85 36.9286 135.378 38.8166 136.914 40.1286C136.818 40.4806 136.466 40.6406 135.986 40.6406H110.642L110.354 39.7446ZM111.762 48.8326H129.554L131.73 46.0806C131.73 46.0806 134.162 47.9366 135.666 49.2486C135.602 49.5686 135.218 49.7286 134.738 49.7286H112.018L111.762 48.8326ZM108.242 59.4246H131.794L134.066 56.5126C134.066 56.5126 136.658 58.4646 138.226 59.8086C138.13 60.1606 137.778 60.3206 137.33 60.3206H108.498L108.242 59.4246ZM121.074 39.7446H125.202V59.7446H121.074V39.7446ZM117.906 32.0006C129.138 32.6406 126.898 40.7366 122.77 38.5286C121.874 36.2566 119.634 33.7286 117.682 32.2566L117.906 32.0006ZM140.818 42.8486H164.306L166.29 40.4486C166.29 40.4486 168.562 42.0806 169.97 43.2646C169.874 43.6166 169.522 43.7766 169.074 43.7766H141.074L140.818 42.8486ZM141.554 36.0006H163.762L165.682 33.6646C165.682 33.6646 167.858 35.2646 169.202 36.4166C169.106 36.7686 168.754 36.9286 168.338 36.9286H141.842L141.554 36.0006ZM143.25 39.3606H162.61L164.466 37.2486C164.466 37.2486 166.546 38.6886 167.858 39.7766C167.762 40.1286 167.442 40.2886 166.994 40.2886H143.506L143.25 39.3606ZM153.298 36.0006H157.074V43.2966H153.298V36.0006ZM161.106 44.7046C168.53 44.7686 165.938 50.3046 162.962 48.4166C162.738 47.1366 161.746 45.7286 160.85 44.9286L161.106 44.7046ZM140.242 49.7606H165.266L167.026 47.3286C167.026 47.3286 169.042 48.9926 170.226 50.1766C170.13 50.5286 169.81 50.6886 169.362 50.6886H140.498L140.242 49.7606ZM140.114 53.9526C143.218 53.7606 149.778 52.9286 155.986 51.9046L156.082 52.3846C152.882 53.6006 148.626 54.9766 142.61 56.4486C142.45 56.8646 142.162 57.1206 141.81 57.2166L140.114 53.9526ZM152.53 44.0006L155.666 46.8806C155.314 47.1686 154.706 47.2006 153.842 46.8806C150.642 47.4566 145.554 47.8086 141.362 47.6486L141.234 47.1686C145.202 46.5606 150.034 45.1206 152.53 44.0006ZM163.922 50.5926L167.89 52.8326C167.698 53.1526 167.378 53.3446 166.674 53.1846C163.794 56.4806 158.546 59.6486 152.37 60.9926L152.146 60.5446C157.362 58.3366 161.842 54.2726 163.922 50.5926ZM147.282 31.9686C155.346 31.8726 153.074 38.0166 149.778 36.2246C149.298 34.7846 148.018 33.1206 147.026 32.1606L147.282 31.9686ZM156.05 44.2886L160.786 44.6726C160.754 45.0886 160.466 45.4086 159.794 45.5046C160.018 49.9206 161.074 56.0326 166.77 57.7606C167.41 57.9526 167.666 57.9206 167.89 57.6006C168.306 57.0246 168.818 55.7766 169.17 54.8166L169.49 54.8806L169.17 58.4006C170.13 59.2966 170.546 60.1286 170.226 60.8006C169.65 62.1446 167.634 62.0166 165.65 61.3126C157.906 58.8486 156.434 51.0406 156.05 44.2886ZM158.738 31.7446L163.506 33.1526C163.378 33.5366 162.994 33.7926 162.29 33.7286C161.042 34.6246 158.898 35.7766 157.17 36.5446H156.69C157.426 35.2326 158.29 33.1846 158.738 31.7446ZM147.666 46.1446H151.314V57.9846C151.314 60.2566 150.706 61.6326 146.61 61.8886C146.546 60.9286 146.386 60.1926 145.906 59.7126C145.49 59.2966 144.786 58.9126 143.218 58.6886V58.2726C143.218 58.2726 146.354 58.4646 146.994 58.4646C147.538 58.4646 147.666 58.2726 147.666 57.9206V46.1446Z" fill="white"/>
<path d="M69.8656 121.417C68.9696 121.651 68.1696 121.769 67.4656 121.769C66.783 121.769 66.175 121.726 65.6416 121.641C65.1083 121.555 64.5323 121.385 63.9136 121.129C63.3163 120.894 62.751 120.617 62.2176 120.297C61.6843 119.977 61.151 119.582 60.6176 119.113C59.6363 118.323 58.7403 117.47 57.9296 116.553C57.1403 115.635 55.6043 113.918 53.3216 111.401C51.039 108.862 49.5243 107.177 48.7776 106.345C48.031 105.513 47.455 105.075 47.0496 105.033V104.713C48.287 104.713 49.1083 104.691 49.5136 104.649C49.9403 104.585 50.3883 104.489 50.8576 104.361C51.327 104.211 51.7216 104.019 52.0416 103.785C53.3003 102.974 53.9296 101.63 53.9296 99.7526C53.9296 98.1952 53.5776 96.9472 52.8736 96.0086C52.191 95.0699 51.2203 94.5899 49.9616 94.5686H45.9936V113.641C45.9936 114.174 46.1856 114.643 46.5696 115.049C46.975 115.454 47.4656 115.657 48.0416 115.657H48.4256L48.4576 115.977H41.4496V115.657H41.8656C42.399 115.657 42.8683 115.465 43.2736 115.081C43.679 114.697 43.8923 114.227 43.9136 113.673V95.9126C43.8923 95.3579 43.679 94.8886 43.2736 94.5046C42.8896 94.0992 42.4203 93.8966 41.8656 93.8966H41.4496V93.5766H50.0896C51.967 93.5766 53.471 94.1099 54.6016 95.1766C55.7536 96.2219 56.3296 97.6192 56.3296 99.3686C56.3296 101.097 55.807 102.59 54.7616 103.849C53.7163 105.086 52.4363 105.705 50.9216 105.705C50.9216 105.705 50.911 105.705 50.8896 105.705C51.615 106.473 52.4363 107.369 53.3536 108.393C57.0443 112.467 59.4123 115.027 60.4576 116.073C61.503 117.118 62.4203 117.971 63.2096 118.633C64.0203 119.315 64.735 119.817 65.3536 120.137C66.6123 120.819 67.8603 121.161 69.0976 121.161C69.3536 121.161 69.6096 121.139 69.8656 121.097V121.417ZM62.7406 115.657C63.2953 115.657 63.7646 115.465 64.1486 115.081C64.554 114.675 64.7673 114.195 64.7886 113.641V95.7206C64.7886 95.2086 64.586 94.7819 64.1806 94.4406C63.7753 94.0779 63.2953 93.8966 62.7406 93.8966H62.3566L62.3246 93.5766H71.7006C72.362 93.5766 73.0766 93.5126 73.8446 93.3846C74.634 93.2566 75.1886 93.1286 75.5086 93.0006V97.0326H75.1886V96.4566C75.1886 95.9446 75.0073 95.5072 74.6446 95.1446C74.3033 94.7819 73.8873 94.5899 73.3966 94.5686H66.8686V104.457H72.2766C72.7033 104.435 73.066 104.275 73.3646 103.977C73.6633 103.678 73.8126 103.305 73.8126 102.857V102.409H74.1326V107.465H73.8126V106.985C73.8126 106.558 73.6633 106.195 73.3646 105.897C73.0873 105.598 72.7353 105.438 72.3086 105.417H66.8686V114.985H71.4446C73.0233 114.985 74.2286 114.633 75.0606 113.929C75.8926 113.225 76.586 112.179 77.1406 110.793H77.4606L75.6046 115.977H62.3246V115.657H62.7406ZM101.785 115.657H102.041V115.977H94.8414V115.657H95.1294C95.5774 115.657 95.9081 115.518 96.1214 115.241C96.3561 114.942 96.4734 114.665 96.4734 114.409C96.4734 114.153 96.4307 113.897 96.3454 113.641L94.2974 108.201H85.6574L83.5134 113.673C83.4281 113.929 83.3854 114.185 83.3854 114.441C83.3854 114.675 83.4921 114.942 83.7054 115.241C83.9401 115.518 84.2814 115.657 84.7294 115.657H85.0174V115.977H78.5854V115.657H78.8734C79.4067 115.657 79.9294 115.486 80.4414 115.145C80.9534 114.803 81.3694 114.302 81.6894 113.641L88.9214 96.4246C89.7107 94.6966 90.1054 93.5979 90.1054 93.1286H90.3934L98.9694 113.641C99.2681 114.302 99.6734 114.803 100.185 115.145C100.697 115.486 101.231 115.657 101.785 115.657ZM86.0414 107.241H93.9134L90.0734 96.9686L86.0414 107.241ZM103.991 115.657C104.545 115.657 105.015 115.465 105.399 115.081C105.804 114.675 106.017 114.195 106.039 113.641V95.9126C106.017 95.3579 105.804 94.8886 105.399 94.5046C105.015 94.0992 104.545 93.8966 103.991 93.8966H103.575V93.5766H110.583V93.8966H110.167C109.399 93.8966 108.812 94.2272 108.407 94.8886C108.215 95.2086 108.119 95.5499 108.119 95.9126V114.985H112.695C114.273 114.985 115.479 114.633 116.311 113.929C117.143 113.225 117.836 112.179 118.391 110.793H118.711L116.855 115.977H103.575V115.657H103.991ZM121.491 115.657C122.045 115.657 122.515 115.465 122.899 115.081C123.304 114.675 123.517 114.195 123.539 113.641V95.8806C123.517 95.3259 123.304 94.8566 122.899 94.4726C122.515 94.0886 122.045 93.8966 121.491 93.8966H121.075V93.5766H128.083V93.8966H127.667C127.112 93.8966 126.632 94.0886 126.227 94.4726C125.843 94.8566 125.64 95.3259 125.619 95.8806V113.641C125.619 114.195 125.821 114.675 126.227 115.081C126.632 115.465 127.112 115.657 127.667 115.657H128.083V115.977H121.075V115.657H121.491ZM131.919 114.665C131.855 114.366 131.823 113.79 131.823 112.937C131.823 112.083 131.983 111.177 132.303 110.217H132.591C132.57 110.451 132.559 110.686 132.559 110.921C132.559 112.222 132.954 113.31 133.743 114.185C134.532 115.038 135.578 115.465 136.879 115.465C138.223 115.465 139.322 115.059 140.175 114.249C141.05 113.438 141.487 112.425 141.487 111.209C141.487 109.971 141.071 108.969 140.239 108.201L134.095 102.505C132.943 101.438 132.367 100.147 132.367 98.6326C132.367 97.1179 132.868 95.8272 133.871 94.7606C134.895 93.6726 136.271 93.1286 137.999 93.1286C138.81 93.1286 139.727 93.2352 140.751 93.4486H141.999V97.3846H141.711C141.711 96.3819 141.359 95.5819 140.655 94.9846C139.972 94.3872 139.087 94.0886 137.999 94.0886C136.911 94.0886 135.994 94.4512 135.247 95.1766C134.522 95.9019 134.159 96.8086 134.159 97.8966C134.159 98.9846 134.586 99.9232 135.439 100.713L141.743 106.537C142.81 107.518 143.343 108.862 143.343 110.569C143.343 112.275 142.799 113.683 141.711 114.793C140.623 115.881 139.172 116.425 137.359 116.425C136.42 116.425 135.418 116.275 134.351 115.977C133.306 115.699 132.495 115.262 131.919 114.665ZM173.986 115.657H174.498V115.977H167.554V115.689H168.034C168.397 115.689 168.706 115.55 168.962 115.273C169.218 114.995 169.325 114.675 169.282 114.313L167.842 98.2166L161.122 113.161C160.525 114.462 160.162 115.55 160.034 116.425H159.714L151.522 98.6646L150.146 114.313C150.103 114.654 150.21 114.974 150.466 115.273C150.722 115.55 151.031 115.689 151.394 115.689H151.874V115.977H145.666V115.657H146.178C146.775 115.657 147.287 115.475 147.714 115.113C148.162 114.75 148.429 114.259 148.514 113.641L150.914 93.1286H151.234L160.162 112.425L168.898 93.1286H169.186L171.65 113.641C171.735 114.259 172.002 114.75 172.45 115.113C172.898 115.475 173.41 115.657 173.986 115.657Z" fill="white"/>
</svg>
