<svg width="395" height="151" viewBox="0 0 395 151" fill="none" xmlns="http://www.w3.org/2000/svg">
<path d="M140.837 46.1687H157.445V47.0967H140.837V46.1687ZM140.837 57.5927H157.445V58.4887H140.837V57.5927ZM155.589 35.2247H155.269L157.189 33.1127L160.933 36.0887C160.709 36.3767 160.293 36.6327 159.653 36.7927V60.1208C159.621 60.4408 157.733 61.3688 156.229 61.3688H155.589V35.2247ZM139.013 35.2247V33.4967L143.205 35.2247H157.861V36.1527H142.949V60.1848C142.949 60.6648 141.381 61.6568 139.653 61.6568H139.013V35.2247ZM166.277 39.0967H189.893L192.069 36.3767C192.069 36.3767 194.565 38.2327 196.069 39.4807C196.005 39.8327 195.621 39.9927 195.141 39.9927H166.565L166.277 39.0967ZM167.397 45.4967H177.221L179.205 42.9367C179.205 42.9367 181.445 44.6967 182.821 45.9127C182.725 46.2647 182.405 46.4247 181.957 46.4247H167.621L167.397 45.4967ZM182.277 31.9927L187.333 32.5047C187.269 32.9207 187.013 33.3047 186.213 33.4327C186.053 42.6167 186.821 51.6407 192.357 56.0887C192.805 56.5367 193.061 56.5367 193.381 55.9927C193.893 55.1607 194.789 53.4327 195.365 52.0247L195.717 52.1207L194.949 57.5607C196.101 59.4808 196.261 60.5048 195.717 61.0488C194.181 62.4888 191.557 61.1128 190.117 59.8008C183.301 53.6247 182.309 43.5447 182.277 31.9927ZM187.781 32.9207C195.941 32.5047 193.925 38.6487 190.629 37.0167C190.085 35.6087 188.677 34.0407 187.525 33.1767L187.781 32.9207ZM172.997 45.5287H176.773V56.9207L172.997 57.4007V45.5287ZM166.533 57.0807C169.477 56.6647 176.325 55.3527 183.557 53.9127L183.653 54.3287C180.709 55.8327 176.357 57.7527 169.797 60.3128C169.637 60.7288 169.317 61.0168 168.965 61.1128L166.533 57.0807ZM221.125 46.2327C229.605 46.1687 228.325 52.1527 225.093 50.8727C224.293 49.3367 222.373 47.5127 220.901 46.4887L221.125 46.2327ZM209.861 53.9447C217.957 55.1607 214.501 60.9528 211.461 58.4887C211.301 56.9527 210.405 55.2247 209.605 54.1367L209.861 53.9447ZM207.269 35.2567H222.533L224.581 32.6327C224.581 32.6327 226.853 34.4247 228.261 35.6727C228.165 36.0247 227.813 36.1847 227.365 36.1847H207.493L207.269 35.2567ZM206.469 52.7607H223.333L225.253 50.3927C225.253 50.3927 227.365 52.0247 228.677 53.1767C228.613 53.4967 228.261 53.6567 227.813 53.6567H206.725L206.469 52.7607ZM222.341 38.2007H222.021L223.717 36.4087L227.269 39.0327C227.077 39.2567 226.693 39.5127 226.117 39.6407V45.6247C226.085 45.8167 224.165 46.4247 222.981 46.4247H222.341V38.2007ZM208.485 38.2007V36.6647L212.389 38.2007H224.101V39.0967H212.165V46.1687C212.165 46.4887 210.501 47.2887 208.997 47.2887H208.485V38.2007ZM211.141 41.4327H224.325V42.3287H211.141V41.4327ZM211.141 44.6327H224.325V45.5287H211.141V44.6327ZM218.693 49.8167L223.429 50.2327C223.365 50.6807 223.045 50.9047 222.373 51.0327V57.7847C222.373 60.2808 221.829 61.5608 217.861 61.9128C217.797 60.8568 217.669 60.0568 217.253 59.5128C216.869 59.0328 216.261 58.6807 214.917 58.4567V58.0087C214.917 58.0087 217.605 58.2007 218.149 58.2007C218.565 58.2007 218.693 58.0727 218.693 57.7207V49.8167ZM215.333 31.8647L220.229 32.2807C220.165 32.7287 219.909 33.0807 219.045 33.2087V48.8887L215.333 49.1127V31.8647ZM206.885 48.2167C209.893 48.2487 216.869 47.9927 224.197 47.7047V48.2167C220.805 49.0167 216.069 49.9767 209.221 51.2567C208.997 51.6407 208.613 51.8967 208.293 51.9607L206.885 48.2167ZM201.413 42.0728L202.821 40.2167L206.053 41.4007C205.957 41.7207 205.669 41.9127 205.061 42.0087V60.7608C204.997 61.0168 203.525 61.8168 202.085 61.8168H201.413V42.0728ZM203.557 31.8007L208.837 33.3687C208.709 33.7527 208.293 34.0407 207.589 34.0407C205.285 40.3127 202.053 45.4327 198.117 48.9527L197.701 48.6967C200.005 44.5367 202.373 37.9767 203.557 31.8007ZM254.565 44.6647C254.565 45.0487 254.565 45.4967 254.565 45.7847V57.0167C254.565 57.4007 254.661 57.5607 255.141 57.5607H256.165C256.549 57.5607 256.869 57.5607 257.093 57.5607C257.317 57.5287 257.477 57.4967 257.637 57.1767C257.925 56.6647 258.405 54.8087 258.853 53.0487H259.205L259.333 57.3687C260.133 57.7527 260.325 58.1687 260.325 58.7767C260.325 60.0568 259.237 60.6648 255.781 60.6648H254.053C251.525 60.6648 251.109 59.9288 251.109 57.8167V44.6647H254.565ZM249.509 45.6247C249.125 51.8007 248.229 57.8167 238.597 61.8808L238.213 61.4328C245.413 56.6647 245.637 51.0327 245.765 45.6247H249.509ZM253.829 33.7207C253.637 34.1687 253.029 34.4887 251.909 34.1367L252.869 33.8487C250.949 37.4647 246.661 42.8727 243.365 45.6247L243.301 45.2407H245.189C245.029 47.3207 244.389 48.5687 243.525 48.9527L241.797 44.6967C241.797 44.6967 242.629 44.4727 242.917 44.1847C245.029 41.9447 248.037 35.3207 248.933 31.6407L253.829 33.7207ZM242.373 44.8567C245.125 44.7927 251.301 44.4407 257.701 43.9607L257.765 44.4087C254.885 45.3687 249.957 46.8087 243.845 48.2487L242.373 44.8567ZM253.125 39.8327C262.981 43.1607 260.069 50.3927 256.581 47.6727C256.165 45.1127 254.405 42.0728 252.805 40.0247L253.125 39.8327ZM256.709 34.3927C256.709 34.3927 258.885 36.1207 260.165 37.3367C260.069 37.6887 259.717 37.8487 259.301 37.8487H241.829L241.573 36.9207H254.789L256.709 34.3927ZM243.109 39.9927C242.885 40.3767 242.181 40.6007 241.221 40.0887L242.149 39.8967C240.261 42.6807 235.653 47.0967 232.037 49.4007L231.973 48.9847H233.605C233.381 51.0007 232.677 52.1207 231.845 52.3767L230.501 48.5047C230.501 48.5047 231.301 48.3127 231.621 48.1207C234.245 46.0727 237.957 40.5047 239.173 37.3687L243.109 39.9927ZM239.909 34.0087C239.749 34.4247 239.141 34.7127 238.053 34.2967L239.045 34.1047C237.541 36.4727 234.501 39.9607 232.069 41.6887V41.3368H233.765C233.637 43.2247 232.997 44.3767 232.229 44.6967L230.661 40.8567C230.661 40.8567 231.301 40.6967 231.589 40.4727C233.093 38.9367 235.013 34.3287 235.589 31.8647L239.909 34.0087ZM233.669 52.7927C234.725 56.1847 234.277 58.6807 233.189 59.9288C232.453 60.7928 230.757 60.7608 230.181 59.6408C229.733 58.6807 230.245 57.6887 231.109 57.0807C232.005 56.3447 233.221 54.4567 233.189 52.7607L233.669 52.7927ZM238.597 51.6727C245.125 53.4967 242.501 58.4247 240.037 56.4087C239.973 54.8727 239.109 52.9847 238.277 51.8647L238.597 51.6727ZM235.845 52.2807C241.285 56.4407 237.669 61.1448 235.589 58.4567C235.941 56.4407 235.781 54.1047 235.429 52.3767L235.845 52.2807ZM238.533 45.0487C245.221 48.0887 242.341 53.0807 239.877 50.8087C239.845 48.9847 238.981 46.7127 238.181 45.2087L238.533 45.0487ZM231.013 48.6967C232.741 48.6647 236.901 48.3767 240.997 48.0887L241.029 48.4727C239.269 49.2407 235.877 50.6807 232.069 51.9927L231.013 48.6967ZM231.077 40.9527C232.645 41.0167 236.069 41.0167 239.397 40.9527V41.3687C238.085 41.9767 235.333 43.1287 232.357 44.1847L231.077 40.9527Z" fill="white"/>
<path d="M1.04244 99.968C0.381104 99.1787 0.0504375 98.4 0.0504375 97.632C0.0504375 96.8427 0.231771 96.1707 0.594437 95.616C0.957104 95.04 1.54377 94.56 2.35444 94.176C3.1651 93.7707 4.08244 93.568 5.10644 93.568H18.2264C18.8878 93.568 19.6131 93.504 20.4024 93.376C21.2131 93.248 21.7784 93.12 22.0984 92.992V97.024L21.7784 96.992V96.448C21.7784 95.936 21.5971 95.4987 21.2344 95.136C20.8718 94.752 20.4451 94.5493 19.9544 94.528H13.8744V113.696C13.8958 114.464 14.2371 115.04 14.8984 115.424C15.2184 115.595 15.5598 115.68 15.9224 115.68H16.3384V116H9.33044V115.68H9.74644C10.3011 115.68 10.7704 115.488 11.1544 115.104C11.5598 114.72 11.7731 114.261 11.7944 113.728V94.528H5.10644C3.39977 94.528 2.16244 95.072 1.39444 96.16C0.989104 96.7147 0.786438 97.3013 0.786438 97.92C0.786438 98.5173 0.957104 99.1467 1.29844 99.808L1.04244 99.968ZM31.1917 94.592H29.1437V113.664C29.1437 114.219 29.3357 114.699 29.7197 115.104C30.125 115.488 30.6157 115.68 31.1917 115.68H31.5757L31.6077 116H24.5997V115.68H25.0157C25.5704 115.68 26.0397 115.488 26.4237 115.104C26.829 114.72 27.0424 114.251 27.0637 113.696V95.936C27.0424 95.3813 26.829 94.912 26.4237 94.528C26.0397 94.1227 25.5704 93.92 25.0157 93.92H24.5997V93.6H33.2397C35.181 93.6 36.7064 94.144 37.8157 95.232C38.925 96.2987 39.4797 97.696 39.4797 99.424C39.4797 101.131 38.9464 102.613 37.8797 103.872C36.8344 105.109 35.5544 105.728 34.0397 105.728C34.3597 105.877 34.733 106.176 35.1597 106.624C35.6077 107.051 36.0024 107.499 36.3437 107.968C38.1784 110.592 39.373 112.213 39.9277 112.832C40.4824 113.429 40.877 113.845 41.1117 114.08C41.3464 114.293 41.6024 114.507 41.8797 114.72C42.157 114.933 42.4344 115.104 42.7117 115.232C43.3304 115.531 43.9917 115.68 44.6957 115.68V116H42.9357C42.0184 116 41.165 115.84 40.3757 115.52C39.5864 115.179 38.989 114.837 38.5837 114.496C38.1997 114.133 37.8584 113.792 37.5597 113.472C37.2824 113.131 36.493 112.021 35.1917 110.144C33.8904 108.267 33.133 107.2 32.9197 106.944C32.7064 106.667 32.4824 106.4 32.2477 106.144C31.565 105.419 30.8824 105.056 30.1997 105.056V104.736C30.3704 104.757 30.5944 104.768 30.8717 104.768C31.149 104.768 31.4904 104.757 31.8957 104.736C34.541 104.672 36.205 103.563 36.8877 101.408C37.0157 100.981 37.0797 100.587 37.0797 100.224C37.0797 99.84 37.0797 99.5947 37.0797 99.488C37.037 98.0587 36.6637 96.9067 35.9597 96.032C35.2557 95.1573 34.3064 94.688 33.1117 94.624C32.5997 94.6027 31.9597 94.592 31.1917 94.592ZM66.2792 115.68H66.5352V116H59.3352V115.68H59.6232C60.0712 115.68 60.4019 115.541 60.6152 115.264C60.8499 114.965 60.9672 114.688 60.9672 114.432C60.9672 114.176 60.9245 113.92 60.8392 113.664L58.7912 108.224H50.1512L48.0072 113.696C47.9219 113.952 47.8792 114.208 47.8792 114.464C47.8792 114.699 47.9859 114.965 48.1992 115.264C48.4339 115.541 48.7752 115.68 49.2232 115.68H49.5112V116H43.0792V115.68H43.3672C43.9005 115.68 44.4232 115.509 44.9352 115.168C45.4472 114.827 45.8632 114.325 46.1832 113.664L53.4152 96.448C54.2045 94.72 54.5992 93.6213 54.5992 93.152H54.8872L63.4632 113.664C63.7619 114.325 64.1672 114.827 64.6792 115.168C65.1912 115.509 65.7245 115.68 66.2792 115.68ZM50.5352 107.264H58.4072L54.5672 96.992L50.5352 107.264ZM78.9164 93.6C82.3298 93.6 85.0924 94.6347 87.2044 96.704C89.3378 98.752 90.4044 101.451 90.4044 104.8C90.4044 108.149 89.3378 110.859 87.2044 112.928C85.0924 114.976 82.3298 116 78.9164 116H68.0684V115.68H68.4844C69.0391 115.68 69.5084 115.488 69.8924 115.104C70.2978 114.699 70.5111 114.219 70.5324 113.664V95.744C70.5324 95.232 70.3191 94.8053 69.8924 94.464C69.4871 94.1013 69.0178 93.92 68.4844 93.92H68.1004L68.0684 93.6H78.9164ZM72.6124 94.56V115.04H78.9164C80.7084 115.04 82.2871 114.613 83.6524 113.76C85.0391 112.907 86.1058 111.712 86.8524 110.176C87.6204 108.619 88.0044 106.827 88.0044 104.8C88.0044 101.728 87.1618 99.2533 85.4764 97.376C83.8124 95.4987 81.6258 94.56 78.9164 94.56H72.6124ZM93.6719 115.68C94.2266 115.68 94.6959 115.488 95.0799 115.104C95.4853 114.699 95.6986 114.219 95.7199 113.664V95.904C95.6986 95.3493 95.4853 94.88 95.0799 94.496C94.6959 94.112 94.2266 93.92 93.6719 93.92H93.2559V93.6H100.264V93.92H99.8479C99.2933 93.92 98.8133 94.112 98.4079 94.496C98.0239 94.88 97.8213 95.3493 97.7999 95.904V113.664C97.7999 114.219 98.0026 114.699 98.4079 115.104C98.8133 115.488 99.2933 115.68 99.8479 115.68H100.264V116H93.2559V115.68H93.6719ZM120.996 96.448C120.996 95.936 120.815 95.4987 120.452 95.136C120.09 94.752 119.663 94.5493 119.172 94.528H113.092V113.696C113.114 114.251 113.316 114.72 113.7 115.104C114.106 115.488 114.586 115.68 115.14 115.68H115.556V116H108.548V115.68H108.964C109.519 115.68 109.988 115.488 110.372 115.104C110.778 114.72 110.991 114.261 111.012 113.728V94.528H104.932C104.42 94.5493 103.983 94.752 103.62 95.136C103.279 95.4987 103.108 95.936 103.108 96.448V96.992L102.788 97.024V92.992C103.108 93.12 103.663 93.248 104.452 93.376C105.242 93.504 105.967 93.568 106.628 93.568H117.444C118.49 93.568 119.354 93.4933 120.036 93.344C120.74 93.1733 121.167 93.056 121.316 92.992V97.024L120.996 96.992V96.448ZM124.266 115.68C124.82 115.68 125.29 115.488 125.674 115.104C126.079 114.699 126.292 114.219 126.314 113.664V95.904C126.292 95.3493 126.079 94.88 125.674 94.496C125.29 94.112 124.82 93.92 124.266 93.92H123.85V93.6H130.858V93.92H130.442C129.887 93.92 129.407 94.112 129.002 94.496C128.618 94.88 128.415 95.3493 128.394 95.904V113.664C128.394 114.219 128.596 114.699 129.002 115.104C129.407 115.488 129.887 115.68 130.442 115.68H130.858V116H123.85V115.68H124.266ZM136.821 96.384C139.104 94.2293 142.059 93.152 145.685 93.152C149.333 93.152 152.299 94.2293 154.581 96.384C156.864 98.5173 158.005 101.323 158.005 104.8C158.005 108.277 156.864 111.093 154.581 113.248C152.299 115.381 149.333 116.448 145.685 116.448C142.059 116.448 139.104 115.381 136.821 113.248C134.539 111.093 133.397 108.277 133.397 104.8C133.397 101.323 134.539 98.5173 136.821 96.384ZM138.549 112.544C140.363 114.507 142.741 115.488 145.685 115.488C148.629 115.488 150.997 114.507 152.789 112.544C154.603 110.581 155.509 108 155.509 104.8C155.509 101.6 154.603 99.0187 152.789 97.056C150.997 95.0933 148.629 94.112 145.685 94.112C142.741 94.112 140.363 95.0933 138.549 97.056C136.757 99.0187 135.861 101.6 135.861 104.8C135.861 108 136.757 110.581 138.549 112.544ZM184.138 93.92C183.605 93.92 183.146 94.112 182.762 94.496C182.378 94.8587 182.176 95.3067 182.154 95.84V112.352C182.154 113.589 182.229 114.763 182.378 115.872L182.442 116.448H182.154L164.714 97.824V113.76C164.714 114.293 164.906 114.752 165.29 115.136C165.674 115.499 166.133 115.68 166.666 115.68H167.274V116H160.682V115.68H161.29C161.824 115.68 162.282 115.499 162.666 115.136C163.05 114.752 163.242 114.283 163.242 113.728V97.12C163.242 95.8187 163.168 94.656 163.018 93.632L162.954 93.12H163.274L180.714 111.744V95.872C180.693 95.3173 180.49 94.8587 180.106 94.496C179.722 94.112 179.264 93.92 178.73 93.92H178.122V93.6H184.714V93.92H184.138ZM208.592 115.68H208.848V116H201.648V115.68H201.936C202.384 115.68 202.714 115.541 202.928 115.264C203.162 114.965 203.28 114.688 203.28 114.432C203.28 114.176 203.237 113.92 203.152 113.664L201.104 108.224H192.464L190.32 113.696C190.234 113.952 190.192 114.208 190.192 114.464C190.192 114.699 190.298 114.965 190.512 115.264C190.746 115.541 191.088 115.68 191.536 115.68H191.824V116H185.392V115.68H185.68C186.213 115.68 186.736 115.509 187.248 115.168C187.76 114.827 188.176 114.325 188.496 113.664L195.728 96.448C196.517 94.72 196.912 93.6213 196.912 93.152H197.2L205.776 113.664C206.074 114.325 206.48 114.827 206.992 115.168C207.504 115.509 208.037 115.68 208.592 115.68ZM192.848 107.264H200.72L196.88 96.992L192.848 107.264ZM210.797 115.68C211.352 115.68 211.821 115.488 212.205 115.104C212.61 114.699 212.824 114.219 212.845 113.664V95.936C212.824 95.3813 212.61 94.912 212.205 94.528C211.821 94.1227 211.352 93.92 210.797 93.92H210.381V93.6H217.389V93.92H216.973C216.205 93.92 215.618 94.2507 215.213 94.912C215.021 95.232 214.925 95.5733 214.925 95.936V115.008H219.501C221.08 115.008 222.285 114.656 223.117 113.952C223.949 113.248 224.642 112.203 225.197 110.816H225.517L223.661 116H210.381V115.68H210.797ZM231.902 120.32C232.478 120.512 233.054 120.608 233.63 120.608C234.184 120.608 234.771 120.491 235.39 120.256C236.008 120.021 236.574 119.648 237.086 119.136C237.598 118.645 238.014 117.899 238.334 116.896C238.675 115.893 238.846 114.709 238.846 113.344V95.936C238.824 95.3813 238.611 94.912 238.206 94.528C237.822 94.1227 237.352 93.92 236.798 93.92H236.382V93.6H243.39V93.92H242.974C242.419 93.92 241.939 94.112 241.534 94.496C241.15 94.88 240.947 95.36 240.926 95.936V113.44C240.926 114.891 240.702 116.16 240.254 117.248C239.806 118.336 239.24 119.157 238.558 119.712C237.278 120.715 235.859 121.216 234.302 121.216C233.384 121.216 232.542 121.035 231.774 120.672L231.902 120.32ZM267.56 115.68H267.816V116H260.616V115.68H260.904C261.352 115.68 261.683 115.541 261.896 115.264C262.131 114.965 262.248 114.688 262.248 114.432C262.248 114.176 262.206 113.92 262.12 113.664L260.072 108.224H251.432L249.288 113.696C249.203 113.952 249.16 114.208 249.16 114.464C249.16 114.699 249.267 114.965 249.48 115.264C249.715 115.541 250.056 115.68 250.504 115.68H250.792V116H244.36V115.68H244.648C245.182 115.68 245.704 115.509 246.216 115.168C246.728 114.827 247.144 114.325 247.464 113.664L254.696 96.448C255.486 94.72 255.88 93.6213 255.88 93.152H256.168L264.744 113.664C265.043 114.325 265.448 114.827 265.96 115.168C266.472 115.509 267.006 115.68 267.56 115.68ZM251.816 107.264H259.688L255.848 96.992L251.816 107.264ZM284.294 99.776C284.294 100.715 284.102 101.589 283.718 102.4C283.014 103.915 281.776 104.971 280.006 105.568C279.387 105.781 278.854 105.888 278.406 105.888C277.083 105.888 275.942 105.643 274.982 105.152V104.832C276.539 105.173 277.979 105.003 279.302 104.32C280.475 103.723 281.275 102.741 281.702 101.376C281.83 100.949 281.894 100.544 281.894 100.16C281.894 99.776 281.894 99.5413 281.894 99.456C281.851 97.9627 281.456 96.7787 280.71 95.904C279.963 95.008 278.918 94.56 277.574 94.56H273.894V113.664C273.915 114.219 274.118 114.699 274.502 115.104C274.907 115.488 275.387 115.68 275.942 115.68H276.358V116H269.35V115.68H269.766C270.32 115.68 270.79 115.488 271.174 115.104C271.579 114.699 271.792 114.219 271.814 113.664V95.776C271.75 95.2427 271.526 94.8053 271.142 94.464C270.758 94.1013 270.299 93.92 269.766 93.92H269.382L269.35 93.6H277.702C279.75 93.6 281.36 94.1547 282.534 95.264C283.707 96.352 284.294 97.856 284.294 99.776ZM306.56 115.68H306.816V116H299.616V115.68H299.904C300.352 115.68 300.683 115.541 300.896 115.264C301.131 114.965 301.248 114.688 301.248 114.432C301.248 114.176 301.206 113.92 301.12 113.664L299.072 108.224H290.432L288.288 113.696C288.203 113.952 288.16 114.208 288.16 114.464C288.16 114.699 288.267 114.965 288.48 115.264C288.715 115.541 289.056 115.68 289.504 115.68H289.792V116H283.36V115.68H283.648C284.182 115.68 284.704 115.509 285.216 115.168C285.728 114.827 286.144 114.325 286.464 113.664L293.696 96.448C294.486 94.72 294.88 93.6213 294.88 93.152H295.168L303.744 113.664C304.043 114.325 304.448 114.827 304.96 115.168C305.472 115.509 306.006 115.68 306.56 115.68ZM290.816 107.264H298.688L294.848 96.992L290.816 107.264ZM331.326 93.92C330.792 93.92 330.334 94.112 329.95 94.496C329.566 94.8587 329.363 95.3067 329.342 95.84V112.352C329.342 113.589 329.416 114.763 329.566 115.872L329.63 116.448H329.342L311.902 97.824V113.76C311.902 114.293 312.094 114.752 312.478 115.136C312.862 115.499 313.32 115.68 313.854 115.68H314.462V116H307.87V115.68H308.478C309.011 115.68 309.47 115.499 309.854 115.136C310.238 114.752 310.43 114.283 310.43 113.728V97.12C310.43 95.8187 310.355 94.656 310.206 93.632L310.142 93.12H310.462L327.902 111.744V95.872C327.88 95.3173 327.678 94.8587 327.294 94.496C326.91 94.112 326.451 93.92 325.918 93.92H325.31V93.6H331.902V93.92H331.326ZM335.359 115.68C335.914 115.68 336.383 115.488 336.767 115.104C337.173 114.699 337.386 114.219 337.407 113.664V95.744C337.407 95.232 337.205 94.8053 336.799 94.464C336.394 94.1013 335.914 93.92 335.359 93.92H334.975L334.943 93.6H344.319C344.981 93.6 345.695 93.536 346.463 93.408C347.253 93.28 347.807 93.152 348.127 93.024V97.056H347.807V96.48C347.807 95.968 347.626 95.5307 347.263 95.168C346.922 94.8053 346.506 94.6133 346.015 94.592H339.487V104.48H344.895C345.322 104.459 345.685 104.299 345.983 104C346.282 103.701 346.431 103.328 346.431 102.88V102.432H346.751V107.488H346.431V107.008C346.431 106.581 346.282 106.219 345.983 105.92C345.706 105.621 345.354 105.461 344.927 105.44H339.487V115.008H344.063C345.642 115.008 346.847 114.656 347.679 113.952C348.511 113.248 349.205 112.203 349.759 110.816H350.079L348.223 116H334.943V115.68H335.359ZM353.444 114.688C353.38 114.389 353.348 113.813 353.348 112.96C353.348 112.107 353.508 111.2 353.828 110.24H354.116C354.095 110.475 354.084 110.709 354.084 110.944C354.084 112.245 354.479 113.333 355.268 114.208C356.058 115.061 357.103 115.488 358.404 115.488C359.748 115.488 360.847 115.083 361.7 114.272C362.575 113.461 363.012 112.448 363.012 111.232C363.012 109.995 362.596 108.992 361.764 108.224L355.62 102.528C354.468 101.461 353.892 100.171 353.892 98.656C353.892 97.1413 354.394 95.8507 355.396 94.784C356.42 93.696 357.796 93.152 359.524 93.152C360.335 93.152 361.252 93.2587 362.276 93.472H363.524V97.408H363.236C363.236 96.4053 362.884 95.6053 362.18 95.008C361.498 94.4107 360.612 94.112 359.524 94.112C358.436 94.112 357.519 94.4747 356.772 95.2C356.047 95.9253 355.684 96.832 355.684 97.92C355.684 99.008 356.111 99.9467 356.964 100.736L363.268 106.56C364.335 107.541 364.868 108.885 364.868 110.592C364.868 112.299 364.324 113.707 363.236 114.816C362.148 115.904 360.698 116.448 358.884 116.448C357.946 116.448 356.943 116.299 355.876 116C354.831 115.723 354.02 115.285 353.444 114.688ZM369.047 115.68C369.602 115.68 370.071 115.488 370.455 115.104C370.86 114.699 371.074 114.219 371.095 113.664V95.744C371.095 95.232 370.892 94.8053 370.487 94.464C370.082 94.1013 369.602 93.92 369.047 93.92H368.663L368.631 93.6H378.007C378.668 93.6 379.383 93.536 380.151 93.408C380.94 93.28 381.495 93.152 381.815 93.024V97.056H381.495V96.48C381.495 95.968 381.314 95.5307 380.951 95.168C380.61 94.8053 380.194 94.6133 379.703 94.592H373.175V104.48H378.583C379.01 104.459 379.372 104.299 379.671 104C379.97 103.701 380.119 103.328 380.119 102.88V102.432H380.439V107.488H380.119V107.008C380.119 106.581 379.97 106.219 379.671 105.92C379.394 105.621 379.042 105.461 378.615 105.44H373.175V115.008H377.751C379.33 115.008 380.535 114.656 381.367 113.952C382.199 113.248 382.892 112.203 383.447 110.816H383.767L381.911 116H368.631V115.68H369.047Z" fill="white"/>
</svg>
