<svg width="215" height="151" viewBox="0 0 215 151" fill="none" xmlns="http://www.w3.org/2000/svg">
<path d="M89.2317 42.3373H93.1037V60.8973C93.1037 61.0893 91.9197 61.8253 89.9357 61.8253H89.2317V42.3373ZM76.1437 54.9133H100.144L102.352 52.2253C102.352 52.2253 104.816 54.0493 106.352 55.3293C106.256 55.6813 105.904 55.8413 105.456 55.8413H76.3997L76.1437 54.9133ZM80.6237 42.2733V40.7053L84.6557 42.2733H99.9837V43.1693H84.3997V52.5133C84.3997 52.8333 82.7357 53.6973 81.1677 53.6973H80.6237V42.2733ZM97.9677 42.2733H97.6477L99.3757 40.3853L102.96 43.1053C102.8 43.3613 102.384 43.6173 101.776 43.7453V51.9693C101.744 52.2573 99.9197 53.0573 98.6077 53.0573H97.9677V42.2733ZM82.9917 50.9133H99.2477V51.8413H82.9917V50.9133ZM82.9917 46.5293H99.2477V47.4573H82.9917V46.5293ZM79.1837 33.8253V32.3533L82.8637 33.8253H87.6957V34.7213H82.7357V40.1933C82.7357 40.5133 81.1357 41.2813 79.6957 41.2813H79.1837V33.8253ZM86.6717 33.8253H86.3517L87.9837 32.0973L91.3757 34.6253C91.1837 34.8813 90.7677 35.1053 90.1597 35.2333V39.8093C90.1277 40.0653 88.4317 40.7373 87.2797 40.7373H86.6717V33.8253ZM80.9117 38.5613H87.4077V39.4573H80.9117V38.5613ZM92.5277 33.8253V32.3533L96.2717 33.8253H101.104V34.7213H96.1437V40.0013C96.1437 40.2893 94.5117 41.0893 93.0397 41.0893H92.5277V33.8253ZM99.9837 33.8253H99.6637L101.296 32.0333L104.784 34.6253C104.592 34.8813 104.144 35.1373 103.536 35.2653V39.8733C103.504 40.0973 101.776 40.7693 100.592 40.7693H99.9837V33.8253ZM94.2237 38.5613H101.136V39.4573H94.2237V38.5613ZM121.968 43.2653H132.976L134.928 40.4813C134.928 40.4813 137.168 42.4013 138.448 43.6493C138.352 44.0013 138.032 44.1613 137.584 44.1613H122.224L121.968 43.2653ZM127.92 32.1293L132.944 32.6413C132.88 33.0893 132.656 33.4093 131.76 33.5373V60.2573C131.76 60.6733 130.128 61.6013 128.656 61.6013H127.92V32.1293ZM117.456 34.1133C115.568 37.3133 112.08 41.1213 108.048 43.3293L107.76 43.0413C110.608 40.1293 113.296 34.9773 114.256 31.7453L118.864 33.4733C118.736 33.8573 118.352 34.1133 117.456 34.1133ZM116.624 33.9533C126.704 35.7453 122.896 41.6973 120.144 39.5853C119.632 38.0173 118.224 35.7453 116.24 34.0493L116.624 33.9533ZM110.832 41.0893H117.008L118.736 38.7853C118.736 38.7853 120.72 40.3533 121.872 41.5053C121.776 41.8573 121.456 42.0173 121.04 42.0173H111.088L110.832 41.0893ZM108.528 46.1773H118.48L120.272 43.7453C120.272 43.7453 122.288 45.4093 123.472 46.5613C123.376 46.9133 123.056 47.0733 122.608 47.0733H108.784L108.528 46.1773ZM114 41.0893H117.52V56.9613L114 57.8253V41.0893ZM108.336 57.5693C110.992 57.3133 117.2 56.3853 123.6 55.3293L123.664 55.7453C121.04 57.0253 117.136 58.6893 111.312 60.8973C111.152 61.3133 110.8 61.6013 110.448 61.6973L108.336 57.5693ZM119.248 48.1293L123.344 49.4733C123.184 49.8573 122.8 50.1133 122.128 50.1133C121.04 51.8733 119.696 53.7613 118.384 55.0733L117.904 54.8493C118.384 53.1533 118.864 50.4653 119.248 48.1293ZM110.032 48.3853C116.08 52.5133 112.592 57.5693 110.32 54.8493C110.544 52.7693 110.128 50.3053 109.616 48.5133L110.032 48.3853Z" fill="white"/>
<path d="M49.8939 106.985C49.8939 106.558 49.7446 106.195 49.4459 105.897C49.1686 105.598 48.8166 105.438 48.3899 105.417H38.1499V113.641C38.1499 114.195 38.3526 114.675 38.7579 115.081C39.1632 115.465 39.6432 115.657 40.1979 115.657H40.6139V115.977H33.6059V115.657H34.0219C34.5766 115.657 35.0459 115.465 35.4299 115.081C35.8352 114.675 36.0486 114.195 36.0699 113.641V95.7206C36.0699 95.2086 35.8566 94.7819 35.4299 94.4406C35.0246 94.0779 34.5552 93.8966 34.0219 93.8966H33.6379L33.6059 93.5766H42.9819C43.8992 93.5766 44.7099 93.5019 45.4139 93.3526C46.1179 93.2032 46.5766 93.0859 46.7899 93.0006V96.6166H46.4699V96.1366C46.4699 95.7099 46.3206 95.3472 46.0219 95.0486C45.7232 94.7286 45.3499 94.5686 44.9019 94.5686H38.1499V104.457H48.3579C48.7846 104.435 49.1472 104.275 49.4459 103.977C49.7446 103.678 49.8939 103.305 49.8939 102.857V102.409H50.2139V107.465H49.8939V106.985ZM52.5531 115.657C53.1078 115.657 53.5771 115.465 53.9611 115.081C54.3665 114.675 54.5798 114.195 54.6011 113.641V95.8806C54.5798 95.3259 54.3665 94.8566 53.9611 94.4726C53.5771 94.0886 53.1078 93.8966 52.5531 93.8966H52.1371V93.5766H59.1451V93.8966H58.7291C58.1745 93.8966 57.6945 94.0886 57.2891 94.4726C56.9051 94.8566 56.7025 95.3259 56.6811 95.8806V113.641C56.6811 114.195 56.8838 114.675 57.2891 115.081C57.6945 115.465 58.1745 115.657 58.7291 115.657H59.1451V115.977H52.1371V115.657H52.5531ZM85.9256 93.8966C85.3923 93.8966 84.9336 94.0886 84.5496 94.4726C84.1656 94.8352 83.963 95.2832 83.9416 95.8166V112.329C83.9416 113.566 84.0163 114.739 84.1656 115.849L84.2296 116.425H83.9416L66.5016 97.8006V113.737C66.5016 114.27 66.6936 114.729 67.0776 115.113C67.4616 115.475 67.9203 115.657 68.4536 115.657H69.0616V115.977H62.4696V115.657H63.0776C63.611 115.657 64.0696 115.475 64.4536 115.113C64.8376 114.729 65.0296 114.259 65.0296 113.705V97.0966C65.0296 95.7952 64.955 94.6326 64.8056 93.6086L64.7416 93.0966H65.0616L82.5016 111.721V95.8486C82.4803 95.2939 82.2776 94.8352 81.8936 94.4726C81.5096 94.0886 81.051 93.8966 80.5176 93.8966H79.9096V93.5766H86.5016V93.8966H85.9256ZM89.9594 115.657C90.5141 115.657 90.9834 115.465 91.3674 115.081C91.7727 114.675 91.9861 114.195 92.0074 113.641V95.7206C92.0074 95.2086 91.8047 94.7819 91.3994 94.4406C90.9941 94.0779 90.5141 93.8966 89.9594 93.8966H89.5754L89.5434 93.5766H98.9194C99.5807 93.5766 100.295 93.5126 101.063 93.3846C101.853 93.2566 102.407 93.1286 102.727 93.0006V97.0326H102.407V96.4566C102.407 95.9446 102.226 95.5072 101.863 95.1446C101.522 94.7819 101.106 94.5899 100.615 94.5686H94.0874V104.457H99.4954C99.9221 104.435 100.285 104.275 100.583 103.977C100.882 103.678 101.031 103.305 101.031 102.857V102.409H101.351V107.465H101.031V106.985C101.031 106.558 100.882 106.195 100.583 105.897C100.306 105.598 99.9541 105.438 99.5274 105.417H94.0874V114.985H98.6634C100.242 114.985 101.447 114.633 102.279 113.929C103.111 113.225 103.805 112.179 104.359 110.793H104.679L102.823 115.977H89.5434V115.657H89.9594ZM122.092 116.585C126.636 118.163 130.039 119.23 132.3 119.785C134.583 120.361 136.535 120.649 138.156 120.649C139.799 120.649 141.601 120.275 143.564 119.529L143.724 119.785C141.121 121.577 138.497 122.473 135.852 122.473C133.143 122.473 130.06 121.63 126.604 119.945C123.937 118.622 122.284 117.822 121.644 117.545C119.361 116.521 117.484 115.998 116.012 115.977V115.657H116.428C116.983 115.657 117.452 115.465 117.836 115.081C118.241 114.697 118.455 114.217 118.476 113.641V95.9126C118.455 95.3579 118.241 94.8886 117.836 94.5046C117.452 94.0992 116.983 93.8966 116.428 93.8966H116.012V93.5766H123.02V93.8966H122.604C122.049 93.8966 121.569 94.0992 121.164 94.5046C120.759 94.8886 120.556 95.3579 120.556 95.9126V114.377C120.556 114.761 120.577 115.059 120.62 115.273C120.663 115.465 120.801 115.689 121.036 115.945C121.271 116.201 121.623 116.414 122.092 116.585ZM129.272 115.657C129.827 115.657 130.296 115.465 130.68 115.081C131.085 114.675 131.299 114.195 131.32 113.641V95.8806C131.299 95.3259 131.085 94.8566 130.68 94.4726C130.296 94.0886 129.827 93.8966 129.272 93.8966H128.856V93.5766H135.864V93.8966H135.448C134.893 93.8966 134.413 94.0886 134.008 94.4726C133.624 94.8566 133.421 95.3259 133.4 95.8806V113.641C133.4 114.195 133.603 114.675 134.008 115.081C134.413 115.465 134.893 115.657 135.448 115.657H135.864V115.977H128.856V115.657H129.272ZM162.644 93.8966C162.111 93.8966 161.652 94.0886 161.268 94.4726C160.884 94.8352 160.682 95.2832 160.66 95.8166V112.329C160.66 113.566 160.735 114.739 160.884 115.849L160.948 116.425H160.66L143.22 97.8006V113.737C143.22 114.27 143.412 114.729 143.796 115.113C144.18 115.475 144.639 115.657 145.172 115.657H145.78V115.977H139.188V115.657H139.796C140.33 115.657 140.788 115.475 141.172 115.113C141.556 114.729 141.748 114.259 141.748 113.705V97.0966C141.748 95.7952 141.674 94.6326 141.524 93.6086L141.46 93.0966H141.78L159.22 111.721V95.8486C159.199 95.2939 158.996 94.8352 158.612 94.4726C158.228 94.0886 157.77 93.8966 157.236 93.8966H156.628V93.5766H163.22V93.8966H162.644ZM166.678 115.657C167.233 115.657 167.702 115.465 168.086 115.081C168.491 114.675 168.705 114.195 168.726 113.641V95.7206C168.726 95.2086 168.523 94.7819 168.118 94.4406C167.713 94.0779 167.233 93.8966 166.678 93.8966H166.294L166.262 93.5766H175.638C176.299 93.5766 177.014 93.5126 177.782 93.3846C178.571 93.2566 179.126 93.1286 179.446 93.0006V97.0326H179.126V96.4566C179.126 95.9446 178.945 95.5072 178.582 95.1446C178.241 94.7819 177.825 94.5899 177.334 94.5686H170.806V104.457H176.214C176.641 104.435 177.003 104.275 177.302 103.977C177.601 103.678 177.75 103.305 177.75 102.857V102.409H178.07V107.465H177.75V106.985C177.75 106.558 177.601 106.195 177.302 105.897C177.025 105.598 176.673 105.438 176.246 105.417H170.806V114.985H175.382C176.961 114.985 178.166 114.633 178.998 113.929C179.83 113.225 180.523 112.179 181.078 110.793H181.398L179.542 115.977H166.262V115.657H166.678Z" fill="white"/>
</svg>
