<svg width="182" height="151" viewBox="0 0 182 151" fill="none" xmlns="http://www.w3.org/2000/svg">
<path d="M88.3047 36.8887C88.3047 36.8887 90.4167 38.7767 91.5687 40.0247C91.4727 40.3767 91.1527 40.5367 90.7047 40.5367H83.2487V39.6407H86.4807L88.3047 36.8887ZM77.0727 45.4967L80.9447 46.9687H86.3527L88.1127 44.9527L91.4727 47.5447C91.2487 47.8327 90.9287 48.0247 90.1927 48.1527V60.2168C90.1927 60.4088 89.0087 61.0807 87.1527 61.0807H86.5127V47.8967H80.5927V60.5048C80.5927 60.7608 79.5047 61.4008 77.7127 61.4008H77.0727V45.4967ZM86.1927 32.6007C86.1287 33.0807 85.8727 33.4007 85.0407 33.5287V47.5127H81.4567V32.1847L86.1927 32.6007ZM87.5047 57.8167V58.7127H79.2807V57.8167H87.5047ZM70.4487 34.1047V43.2887L70.0967 43.3207L70.9287 43.3527V52.6007H67.6327V43.3527L68.4647 43.3207L68.1127 43.2887V34.1047H70.4487ZM74.2887 49.8167C74.2887 49.8167 76.2407 51.2567 77.4567 52.3447C77.3607 52.6967 77.0407 52.8567 76.5927 52.8567H61.4887L61.2327 51.9607H72.5607L74.2887 49.8167ZM74.3207 36.9527C74.2567 37.2087 73.9367 37.5607 73.2647 37.5287C72.7527 38.5207 71.7927 40.1207 70.9287 41.4327L70.5127 41.2727C70.8327 39.6727 71.1527 37.1767 71.2807 35.9287L74.3207 36.9527ZM69.2327 53.9127C75.5047 57.2407 72.3687 62.2648 70.0327 59.8328C70.2567 57.9128 69.6167 55.6087 68.8487 54.0727L69.2327 53.9127ZM72.8167 53.8167C79.6327 56.3767 76.6567 61.6568 74.1927 59.3208C74.2887 57.5287 73.4567 55.3847 72.4647 53.9767L72.8167 53.8167ZM66.4487 54.0407C71.2487 58.3607 67.7607 62.8088 65.8727 60.1848C66.3527 58.2007 66.3207 55.8647 66.0327 54.1687L66.4487 54.0407ZM64.1127 54.0407C65.2007 57.2727 64.8167 59.7368 63.7927 60.8888C63.0887 61.6888 61.4567 61.6888 60.8807 60.6008C60.4327 59.6088 60.9447 58.6487 61.8407 58.0727C62.6087 57.3687 63.6967 55.5767 63.6327 54.0407H64.1127ZM65.7767 35.8967C69.7127 39.2887 67.7607 42.4887 66.3207 40.9207C66.3527 39.3847 65.8087 37.3367 65.2967 36.0247L65.7767 35.8967ZM73.7447 45.2087C73.7447 45.2087 75.5367 46.5527 76.6567 47.5447C76.5607 47.8967 76.2407 48.0567 75.8247 48.0567H62.4487L62.1927 47.1607H72.1447L73.7447 45.2087ZM74.6087 42.9367V43.8327H63.8887V42.9367H74.6087ZM72.7207 33.8167L74.1287 32.2807L77.2007 34.5847C77.0087 34.8087 76.5927 35.0647 75.9847 35.1607V43.8647C75.9527 44.0887 74.4807 44.6967 73.4887 44.6967H73.0087V33.8167H72.7207ZM65.4567 44.1527C65.4567 44.4407 64.1447 45.1127 62.9287 45.1127H62.4807V32.5367L65.6167 33.8167H74.3527V34.7447H65.4567V44.1527ZM103.985 36.4727H118.097L119.985 33.9127C119.985 33.9127 122.097 35.6727 123.377 36.8567C123.281 37.2087 122.961 37.3687 122.481 37.3687H104.241L103.985 36.4727ZM103.313 54.6167H118.481L120.369 52.1527C120.369 52.1527 122.513 53.8167 123.793 55.0327C123.729 55.3847 123.409 55.5447 122.929 55.5447H103.569L103.313 54.6167ZM107.217 44.8567H119.153V45.7527H107.217V44.8567ZM107.217 49.6567H119.153V50.5847H107.217V49.6567ZM111.409 32.0567L116.113 32.5367C116.049 32.9847 115.825 33.3047 114.961 33.4327V60.7608C114.961 61.1128 113.457 61.8168 112.113 61.8168H111.409V32.0567ZM94.6087 34.1367V32.6327L98.5127 34.1367H98.0967V60.7608C98.0967 61.0168 97.0087 61.8808 95.2487 61.8808H94.6087V34.1367ZM96.1767 34.1367H102.673V35.0327H96.1767V34.1367ZM100.753 34.1367H100.401L102.161 32.4087L105.489 35.5127C105.265 35.8327 104.817 35.8967 104.081 35.9287C103.057 37.8807 101.233 41.2727 99.7287 43.2567C102.769 45.4647 104.049 48.4727 104.049 51.0327C104.049 54.1367 102.993 55.8967 99.7287 55.9607C99.7287 55.0327 99.5687 53.7847 99.3127 53.3687C99.0887 53.0167 98.6407 52.7607 98.0007 52.6327V52.2167C98.4807 52.2167 99.3127 52.2167 99.6647 52.2167C99.9527 52.2167 100.113 52.1847 100.337 52.0247C100.689 51.7687 100.945 51.1927 100.945 50.1687C100.945 47.9287 100.433 45.4967 98.9287 43.3527C99.5687 41.0487 100.433 36.5687 100.753 34.1367ZM104.849 40.1528V38.7127L108.433 40.1528H119.537V41.0807H108.273V51.5127C108.273 51.8647 106.769 52.6007 105.361 52.6007H104.849V40.1528ZM118.033 40.1528H117.745L119.377 38.3927L122.737 40.9847C122.577 41.2087 122.161 41.4647 121.585 41.5607V51.1287C121.553 51.3847 119.857 52.1527 118.641 52.1527H118.033V40.1528Z" fill="white"/>
<path d="M0.925 98.272C1.54367 96.4587 2.57833 95.2107 4.029 94.528C5.47967 93.8453 8.05033 93.504 11.741 93.504C12.509 93.504 14.4503 93.536 17.565 93.6C19.8263 93.664 21.821 94.1547 23.549 95.072C25.277 95.9893 26.621 97.2907 27.581 98.976C28.5623 100.64 29.053 102.581 29.053 104.8C29.053 108.149 27.9863 110.859 25.853 112.928C23.741 114.976 20.9783 116 17.565 116H6.717L6.749 115.68H7.133C7.66633 115.68 8.125 115.509 8.509 115.168C8.893 114.805 9.117 114.368 9.181 113.856V94.56C6.51433 94.624 4.62633 95.04 3.517 95.808C2.941 96.2133 2.50367 96.608 2.205 96.992C1.90633 97.3547 1.597 97.824 1.277 98.4L0.925 98.272ZM11.261 94.56V115.04H17.565C20.2743 115.04 22.461 114.101 24.125 112.224C25.8103 110.347 26.653 107.872 26.653 104.8C26.653 102.773 26.269 100.992 25.501 99.456C24.7543 97.8987 23.6877 96.6933 22.301 95.84C20.9357 94.9867 19.357 94.56 17.565 94.56H11.261ZM35.954 96.384C38.2367 94.2293 41.1913 93.152 44.818 93.152C48.466 93.152 51.4313 94.2293 53.714 96.384C55.9967 98.5173 57.138 101.323 57.138 104.8C57.138 108.277 55.9967 111.093 53.714 113.248C51.4313 115.381 48.466 116.448 44.818 116.448C41.1913 116.448 38.2367 115.381 35.954 113.248C33.6713 111.093 32.53 108.277 32.53 104.8C32.53 101.323 33.6713 98.5173 35.954 96.384ZM37.682 112.544C39.4953 114.507 41.874 115.488 44.818 115.488C47.762 115.488 50.13 114.507 51.922 112.544C53.7353 110.581 54.642 108 54.642 104.8C54.642 101.6 53.7353 99.0187 51.922 97.056C50.13 95.0933 47.762 94.112 44.818 94.112C41.874 94.112 39.4953 95.0933 37.682 97.056C35.89 99.0187 34.994 101.6 34.994 104.8C34.994 108 35.89 110.581 37.682 112.544ZM76.4105 96.448C76.4105 95.936 76.2292 95.4987 75.8665 95.136C75.5038 94.752 75.0772 94.5493 74.5865 94.528H68.5065V113.696C68.5278 114.251 68.7305 114.72 69.1145 115.104C69.5198 115.488 69.9998 115.68 70.5545 115.68H70.9705V116H63.9625V115.68H64.3785C64.9332 115.68 65.4025 115.488 65.7865 115.104C66.1918 114.72 66.4052 114.261 66.4265 113.728V94.528H60.3465C59.8345 94.5493 59.3972 94.752 59.0345 95.136C58.6932 95.4987 58.5225 95.936 58.5225 96.448V96.992L58.2025 97.024V92.992C58.5225 93.12 59.0772 93.248 59.8665 93.376C60.6558 93.504 61.3812 93.568 62.0425 93.568H72.8585C73.9038 93.568 74.7678 93.4933 75.4505 93.344C76.1545 93.1733 76.5812 93.056 76.7305 92.992V97.024L76.4105 96.992V96.448ZM103.785 93.6H110.089V93.92H109.833C109.278 93.92 108.723 94.0907 108.169 94.432C107.635 94.752 107.251 95.2427 107.017 95.904L101.705 112.832C101.278 114.176 101.043 115.36 101.001 116.384H100.713L94.1845 98.08L89.3205 112.832C88.9152 114.155 88.6912 115.339 88.6485 116.384H88.3605L81.0965 95.872C80.8405 95.232 80.4458 94.752 79.9125 94.432C79.3792 94.0907 78.8352 93.92 78.2805 93.92H78.0245V93.6H85.1285V93.92H84.8405C84.3925 93.92 84.0512 94.0693 83.8165 94.368C83.6032 94.6453 83.4965 94.912 83.4965 95.168C83.4965 95.424 83.5285 95.6587 83.5925 95.872L88.4565 111.456L94.4085 93.088L94.6965 93.12L101.001 110.816L105.289 95.84C105.353 95.6053 105.385 95.3707 105.385 95.136C105.385 94.88 105.278 94.6133 105.065 94.336C104.851 94.0587 104.521 93.92 104.073 93.92H103.785V93.6ZM113.641 96.384C115.924 94.2293 118.879 93.152 122.506 93.152C126.154 93.152 129.119 94.2293 131.402 96.384C133.684 98.5173 134.826 101.323 134.826 104.8C134.826 108.277 133.684 111.093 131.402 113.248C129.119 115.381 126.154 116.448 122.506 116.448C118.879 116.448 115.924 115.381 113.641 113.248C111.359 111.093 110.218 108.277 110.218 104.8C110.218 101.323 111.359 98.5173 113.641 96.384ZM115.37 112.544C117.183 114.507 119.562 115.488 122.506 115.488C125.45 115.488 127.818 114.507 129.61 112.544C131.423 110.581 132.33 108 132.33 104.8C132.33 101.6 131.423 99.0187 129.61 97.056C127.818 95.0933 125.45 94.112 122.506 94.112C119.562 94.112 117.183 95.0933 115.37 97.056C113.578 99.0187 112.682 101.6 112.682 104.8C112.682 108 113.578 110.581 115.37 112.544ZM143.95 94.592H141.902V113.664C141.902 114.219 142.094 114.699 142.478 115.104C142.883 115.488 143.374 115.68 143.95 115.68H144.334L144.366 116H137.358V115.68H137.774C138.328 115.68 138.798 115.488 139.182 115.104C139.587 114.72 139.8 114.251 139.822 113.696V95.936C139.8 95.3813 139.587 94.912 139.182 94.528C138.798 94.1227 138.328 93.92 137.774 93.92H137.358V93.6H145.998C147.939 93.6 149.464 94.144 150.574 95.232C151.683 96.2987 152.238 97.696 152.238 99.424C152.238 101.131 151.704 102.613 150.638 103.872C149.592 105.109 148.312 105.728 146.798 105.728C147.118 105.877 147.491 106.176 147.918 106.624C148.366 107.051 148.76 107.499 149.102 107.968C150.936 110.592 152.131 112.213 152.686 112.832C153.24 113.429 153.635 113.845 153.87 114.08C154.104 114.293 154.36 114.507 154.638 114.72C154.915 114.933 155.192 115.104 155.47 115.232C156.088 115.531 156.75 115.68 157.454 115.68V116H155.694C154.776 116 153.923 115.84 153.134 115.52C152.344 115.179 151.747 114.837 151.342 114.496C150.958 114.133 150.616 113.792 150.318 113.472C150.04 113.131 149.251 112.021 147.95 110.144C146.648 108.267 145.891 107.2 145.678 106.944C145.464 106.667 145.24 106.4 145.006 106.144C144.323 105.419 143.64 105.056 142.958 105.056V104.736C143.128 104.757 143.352 104.768 143.63 104.768C143.907 104.768 144.248 104.757 144.654 104.736C147.299 104.672 148.963 103.563 149.646 101.408C149.774 100.981 149.838 100.587 149.838 100.224C149.838 99.84 149.838 99.5947 149.838 99.488C149.795 98.0587 149.422 96.9067 148.718 96.032C148.014 95.1573 147.064 94.688 145.87 94.624C145.358 94.6027 144.718 94.592 143.95 94.592ZM164.637 115.68H165.053V116H158.045V115.68H158.461C159.016 115.68 159.485 115.488 159.869 115.104C160.274 114.699 160.488 114.219 160.509 113.664V95.904C160.488 95.3493 160.274 94.88 159.869 94.496C159.485 94.112 159.016 93.92 158.461 93.92H158.045V93.6H165.053V93.92H164.637C164.082 93.92 163.602 94.112 163.197 94.496C162.813 94.88 162.61 95.3493 162.589 95.904V113.664C162.589 114.219 162.792 114.699 163.197 115.104C163.602 115.488 164.082 115.68 164.637 115.68ZM177.501 116H176.125C173.949 116 172.349 115.392 171.325 114.176L163.613 104.864L171.165 95.392C171.336 95.1787 171.421 94.9867 171.421 94.816C171.421 94.6453 171.389 94.496 171.325 94.368C171.154 94.048 170.845 93.888 170.397 93.888H170.077V93.6H176.829V93.888H176.701C175.293 93.888 174.141 94.3893 173.245 95.392L165.725 104.096L174.461 114.368C175.314 115.221 176.328 115.659 177.501 115.68V116Z" fill="white"/>
</svg>
