<svg width="215" height="151" viewBox="0 0 215 151" fill="none" xmlns="http://www.w3.org/2000/svg">
<path d="M85.266 47.792C84.914 52.656 83.826 57.584 76.402 60.848L76.05 60.432C81.074 56.496 81.234 52.016 81.33 47.792H85.266ZM83.73 51.44C92.658 51.696 90.418 58.352 86.994 56.368C86.514 54.64 84.914 52.752 83.474 51.696L83.73 51.44ZM103.378 50.928C103.154 51.248 102.866 51.408 102.13 51.248C99.026 55.472 93.074 59.216 85.362 60.56L85.202 60.112C91.794 57.808 96.978 53.392 99.314 48.816L103.378 50.928ZM96.69 44.688C103.058 44.752 100.21 49.2 97.746 47.408C97.618 46.48 97.01 45.424 96.434 44.88L96.69 44.688ZM93.938 31.408C93.874 31.824 93.586 32.208 92.786 32.304C92.626 43.984 93.522 53.04 101.618 56.368C102.322 56.656 102.61 56.656 102.93 56.112C103.474 55.248 104.402 53.36 104.978 51.92L105.33 51.984L104.754 57.168C106.098 58.576 106.226 59.248 105.906 59.856C104.914 61.552 102.386 60.88 100.21 59.952C90.29 55.536 89.106 44.88 89.106 30.896L93.938 31.408ZM102.354 45.488C102.354 45.488 104.338 46.992 105.586 48.08C105.49 48.432 105.17 48.592 104.722 48.592H77.266L77.01 47.696H100.594L102.354 45.488ZM104.978 36.464C104.754 36.816 104.082 37.04 103.122 36.528L104.114 36.368C102.226 38.48 98.002 41.712 94.674 43.408L94.61 43.056H96.018C95.922 44.624 95.41 45.552 94.802 45.808L93.266 42.608C93.266 42.608 93.938 42.48 94.258 42.352C96.786 40.784 100.306 36.56 101.554 34.256L104.978 36.464ZM89.81 36.784C89.618 37.168 88.978 37.456 87.922 37.008L88.914 36.816C86.898 39.12 82.514 42.48 79.026 44.272V43.92H80.466C80.338 45.488 79.858 46.448 79.25 46.736L77.65 43.472C77.65 43.472 78.322 43.312 78.61 43.152C81.234 41.584 84.85 37.232 86.13 34.864L89.81 36.784ZM101.906 32.816C101.714 33.2 101.138 33.488 100.05 33.104L101.074 32.944C99.57 34.512 96.626 36.688 94.386 37.776L94.354 37.424H95.89C95.794 39.056 95.282 40.112 94.642 40.432L93.01 37.008C93.01 37.008 93.586 36.912 93.874 36.752C95.378 35.728 97.298 32.56 97.97 30.992L101.906 32.816ZM86.61 32.816C86.418 33.2 85.842 33.488 84.754 33.104L85.81 32.944C84.306 34.512 81.298 36.656 79.058 37.712L79.026 37.36H80.594C80.498 39.024 79.986 40.112 79.314 40.432L77.65 36.944C77.65 36.944 78.258 36.816 78.514 36.688C80.082 35.664 82.034 32.56 82.674 30.992L86.61 32.816ZM94.066 42.576C95.634 42.512 99.314 42.256 102.994 41.904L103.058 42.352C101.458 43.024 98.29 44.304 94.962 45.456L94.066 42.576ZM93.842 37.168C95.186 37.136 98.29 36.976 101.298 36.72L101.33 37.168C100.114 37.776 97.522 38.928 94.834 39.952L93.842 37.168ZM78.354 43.472C80.018 43.376 83.89 43.024 87.762 42.576L87.794 43.056C86.098 43.76 82.834 45.072 79.282 46.288L78.354 43.472ZM78.386 37.168C79.794 37.136 83.026 36.944 86.162 36.72L86.194 37.2C84.882 37.744 82.194 38.928 79.41 39.952L78.386 37.168ZM101.138 39.536C107.57 42.32 104.594 47.216 102.258 44.944C102.322 43.184 101.586 41.072 100.754 39.728L101.138 39.536ZM85.842 40.272C91.858 43.536 88.594 48.08 86.418 45.648C86.546 43.92 86.034 41.84 85.458 40.432L85.842 40.272ZM117.746 34.992H132.466L134.674 31.984C134.674 31.984 137.17 34.032 138.61 35.376C138.514 35.728 138.194 35.888 137.714 35.888H118.002L117.746 34.992ZM131.474 35.024H135.314V56.144C135.314 58.704 134.642 60.56 130.034 60.88C129.97 59.632 129.714 58.704 129.138 58.128C128.53 57.552 127.698 57.136 125.746 56.848V56.432C125.746 56.432 129.842 56.656 130.706 56.656C131.282 56.656 131.474 56.4 131.474 56.016V35.024ZM120.466 49.616H126.77V50.544H120.466V49.616ZM118.514 40.432V39.024L122.002 40.432H126.578V41.36H121.874V52.336C121.874 52.656 120.434 53.424 119.026 53.424H118.514V40.432ZM125.17 40.432H124.818L126.482 38.576L130.002 41.296C129.81 41.552 129.33 41.872 128.594 42V51.888C128.562 52.112 126.898 52.816 125.714 52.816H125.17V40.432ZM111.89 41.04L113.202 39.376L116.658 40.624C116.562 40.944 116.274 41.136 115.666 41.264V59.76C115.602 60.048 114.066 60.88 112.594 60.88H111.89V41.04ZM114.226 30.832L119.41 32.368C119.25 32.784 118.834 33.072 118.13 33.04C115.698 39.408 112.274 44.304 108.018 47.6L107.634 47.344C110.258 43.344 112.914 37.008 114.226 30.832Z" fill="white"/>
<path d="M40.8658 120.568C38.1564 120.568 35.9378 119.704 34.2098 117.976C32.9298 116.696 32.0871 115.085 31.6818 113.144C29.6551 114.68 27.1698 115.448 24.2258 115.448C21.9004 115.448 19.7778 114.947 17.8578 113.944C15.9591 112.92 14.4658 111.523 13.3778 109.752C12.3111 107.981 11.7778 105.987 11.7778 103.768C11.7778 101.549 12.3111 99.5547 13.3778 97.784C14.4658 95.992 15.9591 94.6053 17.8578 93.624C19.7564 92.6427 21.8791 92.152 24.2258 92.152C27.1698 92.152 29.7618 92.8773 32.0018 94.328L32.6418 98.84H32.3538C31.7138 96.3653 30.2631 94.68 28.0018 93.784C26.8924 93.336 25.6338 93.112 24.2258 93.112C21.3458 93.112 18.9458 94.1147 17.0258 96.12C15.1271 98.1253 14.1778 100.675 14.1778 103.768C14.1778 106.84 15.1378 109.389 17.0578 111.416C18.9778 113.443 21.3671 114.467 24.2258 114.488C25.6124 114.488 26.9351 114.243 28.1938 113.752C29.4524 113.261 30.5298 112.579 31.4258 111.704V106.04C31.4258 105.571 31.2871 105.219 31.0098 104.984C30.7324 104.728 30.3378 104.6 29.8258 104.6H29.3138V104.28H35.5858V104.6H35.1058C34.5724 104.6 34.1671 104.728 33.8898 104.984C33.6124 105.219 33.4844 105.571 33.5058 106.04V110.968C33.6338 114.339 34.7324 116.749 36.8018 118.2C38.2524 119.224 40.1298 119.736 42.4338 119.736C43.3938 119.736 44.4391 119.64 45.5698 119.448L45.6018 119.768C43.8951 120.301 42.3164 120.568 40.8658 120.568ZM39.2563 114.68C39.8109 114.68 40.2803 114.488 40.6643 114.104C41.0696 113.699 41.2829 113.219 41.3043 112.664V94.744C41.3043 94.232 41.1016 93.8053 40.6963 93.464C40.2909 93.1013 39.8109 92.92 39.2563 92.92H38.8723L38.8403 92.6H48.2163C48.8776 92.6 49.5923 92.536 50.3603 92.408C51.1496 92.28 51.7043 92.152 52.0243 92.024V96.056H51.7043V95.48C51.7043 94.968 51.5229 94.5307 51.1603 94.168C50.8189 93.8053 50.4029 93.6133 49.9123 93.592H43.3843V103.48H48.7923C49.2189 103.459 49.5816 103.299 49.8803 103C50.1789 102.701 50.3283 102.328 50.3283 101.88V101.432H50.6483V106.488H50.3283V106.008C50.3283 105.581 50.1789 105.219 49.8803 104.92C49.6029 104.621 49.2509 104.461 48.8243 104.44H43.3843V114.008H47.9603C49.5389 114.008 50.7443 113.656 51.5763 112.952C52.4083 112.248 53.1016 111.203 53.6563 109.816H53.9763L52.1203 115H38.8403V114.68H39.2563ZM59.468 95.384C61.7507 93.2293 64.7053 92.152 68.332 92.152C71.98 92.152 74.9453 93.2293 77.228 95.384C79.5107 97.5173 80.652 100.323 80.652 103.8C80.652 107.277 79.5107 110.093 77.228 112.248C74.9453 114.381 71.98 115.448 68.332 115.448C64.7053 115.448 61.7507 114.381 59.468 112.248C57.1853 110.093 56.044 107.277 56.044 103.8C56.044 100.323 57.1853 97.5173 59.468 95.384ZM61.196 111.544C63.0093 113.507 65.388 114.488 68.332 114.488C71.276 114.488 73.644 113.507 75.436 111.544C77.2493 109.581 78.156 107 78.156 103.8C78.156 100.6 77.2493 98.0187 75.436 96.056C73.644 94.0933 71.276 93.112 68.332 93.112C65.388 93.112 63.0093 94.0933 61.196 96.056C59.404 98.0187 58.508 100.6 58.508 103.8C58.508 107 59.404 109.581 61.196 111.544ZM110.22 114.68H110.732V115H103.788V114.712H104.268C104.631 114.712 104.94 114.573 105.196 114.296C105.452 114.019 105.559 113.699 105.516 113.336L104.076 97.24L97.3563 112.184C96.7589 113.485 96.3963 114.573 96.2683 115.448H95.9483L87.7563 97.688L86.3803 113.336C86.3376 113.677 86.4443 113.997 86.7003 114.296C86.9563 114.573 87.2656 114.712 87.6283 114.712H88.1083V115H81.9003V114.68H82.4123C83.0096 114.68 83.5216 114.499 83.9483 114.136C84.3963 113.773 84.6629 113.283 84.7483 112.664L87.1483 92.152H87.4683L96.3963 111.448L105.132 92.152H105.42L107.884 112.664C107.97 113.283 108.236 113.773 108.684 114.136C109.132 114.499 109.644 114.68 110.22 114.68ZM113.538 114.68C114.092 114.68 114.562 114.488 114.946 114.104C115.351 113.699 115.564 113.219 115.586 112.664V94.744C115.586 94.232 115.383 93.8053 114.978 93.464C114.572 93.1013 114.092 92.92 113.538 92.92H113.154L113.122 92.6H122.498C123.159 92.6 123.874 92.536 124.642 92.408C125.431 92.28 125.986 92.152 126.306 92.024V96.056H125.986V95.48C125.986 94.968 125.804 94.5307 125.442 94.168C125.1 93.8053 124.684 93.6133 124.194 93.592H117.666V103.48H123.074C123.5 103.459 123.863 103.299 124.162 103C124.46 102.701 124.61 102.328 124.61 101.88V101.432H124.93V106.488H124.61V106.008C124.61 105.581 124.46 105.219 124.162 104.92C123.884 104.621 123.532 104.461 123.106 104.44H117.666V114.008H122.242C123.82 114.008 125.026 113.656 125.858 112.952C126.69 112.248 127.383 111.203 127.938 109.816H128.258L126.402 115H113.122V114.68H113.538ZM148.518 95.448C148.518 94.936 148.337 94.4987 147.974 94.136C147.612 93.752 147.185 93.5493 146.694 93.528H140.614V112.696C140.636 113.251 140.838 113.72 141.222 114.104C141.628 114.488 142.108 114.68 142.662 114.68H143.078V115H136.07V114.68H136.486C137.041 114.68 137.51 114.488 137.894 114.104C138.3 113.72 138.513 113.261 138.534 112.728V93.528H132.454C131.942 93.5493 131.505 93.752 131.142 94.136C130.801 94.4987 130.63 94.936 130.63 95.448V95.992L130.31 96.024V91.992C130.63 92.12 131.185 92.248 131.974 92.376C132.764 92.504 133.489 92.568 134.15 92.568H144.966C146.012 92.568 146.876 92.4933 147.558 92.344C148.262 92.1733 148.689 92.056 148.838 91.992V96.024L148.518 95.992V95.448ZM157.964 93.592H155.916V112.664C155.916 113.219 156.108 113.699 156.492 114.104C156.897 114.488 157.388 114.68 157.964 114.68H158.348L158.38 115H151.372V114.68H151.788C152.342 114.68 152.812 114.488 153.196 114.104C153.601 113.72 153.814 113.251 153.836 112.696V94.936C153.814 94.3813 153.601 93.912 153.196 93.528C152.812 93.1227 152.342 92.92 151.788 92.92H151.372V92.6H160.012C161.953 92.6 163.478 93.144 164.588 94.232C165.697 95.2987 166.252 96.696 166.252 98.424C166.252 100.131 165.718 101.613 164.652 102.872C163.606 104.109 162.326 104.728 160.812 104.728C161.132 104.877 161.505 105.176 161.932 105.624C162.38 106.051 162.774 106.499 163.116 106.968C164.95 109.592 166.145 111.213 166.7 111.832C167.254 112.429 167.649 112.845 167.884 113.08C168.118 113.293 168.374 113.507 168.652 113.72C168.929 113.933 169.206 114.104 169.484 114.232C170.102 114.531 170.764 114.68 171.468 114.68V115H169.708C168.79 115 167.937 114.84 167.148 114.52C166.358 114.179 165.761 113.837 165.356 113.496C164.972 113.133 164.63 112.792 164.332 112.472C164.054 112.131 163.265 111.021 161.964 109.144C160.662 107.267 159.905 106.2 159.692 105.944C159.478 105.667 159.254 105.4 159.02 105.144C158.337 104.419 157.654 104.056 156.972 104.056V103.736C157.142 103.757 157.366 103.768 157.644 103.768C157.921 103.768 158.262 103.757 158.668 103.736C161.313 103.672 162.977 102.563 163.66 100.408C163.788 99.9813 163.852 99.5867 163.852 99.224C163.852 98.84 163.852 98.5947 163.852 98.488C163.809 97.0587 163.436 95.9067 162.732 95.032C162.028 94.1573 161.078 93.688 159.884 93.624C159.372 93.6027 158.732 93.592 157.964 93.592ZM172.475 114.68C173.03 114.68 173.499 114.488 173.883 114.104C174.288 113.699 174.502 113.219 174.523 112.664V94.904C174.502 94.3493 174.288 93.88 173.883 93.496C173.499 93.112 173.03 92.92 172.475 92.92H172.059V92.6H179.067V92.92H178.651C178.096 92.92 177.616 93.112 177.211 93.496C176.827 93.88 176.624 94.3493 176.603 94.904V112.664C176.603 113.219 176.806 113.699 177.211 114.104C177.616 114.488 178.096 114.68 178.651 114.68H179.067V115H172.059V114.68H172.475ZM193.671 115.448C190.3 115.427 187.548 114.349 185.415 112.216C183.303 110.083 182.247 107.277 182.247 103.8C182.247 100.301 183.303 97.4853 185.415 95.352C187.548 93.2187 190.364 92.152 193.863 92.152C196.721 92.152 199.249 92.8773 201.447 94.328L202.087 98.84H201.799C201.329 97.0053 200.38 95.5973 198.951 94.616C197.521 93.6133 195.825 93.112 193.863 93.112C191.068 93.112 188.828 94.0827 187.143 96.024C185.479 97.9653 184.647 100.536 184.647 103.736C184.647 106.936 185.468 109.517 187.111 111.48C188.775 113.421 190.961 114.424 193.671 114.488C196.06 114.488 198.055 113.837 199.655 112.536C201.383 111.128 202.428 108.835 202.791 105.656H203.047L202.663 110.68C200.721 113.859 197.724 115.448 193.671 115.448Z" fill="white"/>
</svg>
