<svg width="291" height="151" viewBox="0 0 291 151" fill="none" xmlns="http://www.w3.org/2000/svg">
<path d="M106.809 36.5289C113.305 39.2169 110.073 43.9529 107.737 41.6169C107.769 39.9529 107.065 38.0009 106.457 36.6889L106.809 36.5289ZM104.569 43.6969H122.553V44.6249H104.569V43.6969ZM120.857 34.1289H120.537L122.265 32.2409L125.881 34.9609C125.689 35.2169 125.273 35.5049 124.633 35.6329V44.9449C124.601 45.1689 122.713 45.8409 121.497 45.8409H120.857V34.1289ZM102.361 34.1289V32.5609L106.329 34.1289H122.585V35.0249H106.073V45.4889C106.073 45.8409 104.441 46.6409 102.905 46.6409H102.361V34.1289ZM111.513 34.1289H115.161V53.0089H111.513V34.1289ZM101.721 48.1769H120.025L122.009 45.4889C122.009 45.4889 124.281 47.3129 125.625 48.5609C125.529 48.9129 125.177 49.0729 124.729 49.0729H101.977L101.721 48.1769ZM98.7446 52.6889H122.489L124.569 49.9049C124.569 49.9049 126.905 51.7929 128.249 53.0729C128.153 53.4249 127.833 53.5849 127.353 53.5849H99.0326L98.7446 52.6889ZM117.369 36.3369L121.497 37.8729C121.401 38.1929 121.049 38.5449 120.345 38.4489C119.449 39.4409 117.753 41.1049 116.217 42.3529L115.897 42.1929C116.473 40.4009 117.145 37.6809 117.369 36.3369ZM103.513 54.3209H103.961C105.177 58.2569 103.673 60.8809 101.913 61.7129C100.729 62.2889 99.2566 62.0009 98.8406 60.7849C98.5206 59.6329 99.2246 58.7689 100.249 58.3209C101.657 57.7769 103.385 56.2409 103.513 54.3209ZM120.153 54.5129C130.969 55.8569 128.825 63.6329 125.049 61.4889C124.313 59.0569 121.977 56.3369 119.897 54.7689L120.153 54.5129ZM107.993 54.4809C115.033 58.2889 111.193 63.7929 108.505 60.8169C108.665 58.7689 108.185 56.3689 107.641 54.6089L107.993 54.4809ZM113.753 54.5449C122.617 56.9449 119.609 63.5689 116.313 61.0089C115.961 58.8649 114.617 56.4009 113.433 54.7049L113.753 54.5449ZM139.641 42.9609C147.961 47.1849 144.377 53.8089 141.241 50.7369C141.177 48.2089 140.217 45.2969 139.289 43.0889L139.641 42.9609ZM143.609 32.4009C143.545 32.8169 143.193 33.1689 142.425 33.2329C140.921 45.4889 137.369 53.4569 130.617 58.8009L130.233 58.5129C134.873 51.9209 137.881 42.5769 138.233 31.7289L143.609 32.4009ZM156.217 34.0969C156.217 34.0969 158.681 35.9209 160.217 37.2009C160.121 37.5529 159.769 37.7129 159.289 37.7129H131.545L131.257 36.8169H153.977L156.217 34.0969ZM159.737 45.0409C159.609 45.3929 159.289 45.5849 158.521 45.4249C156.633 47.0889 153.817 49.3929 151.033 51.0249L150.745 50.7049C152.409 48.1769 154.329 44.4009 155.161 42.1929L159.737 45.0409ZM150.073 40.3369C150.585 50.6729 152.793 55.5369 161.049 57.8409L161.017 58.2249C159.289 58.6089 158.265 59.7289 157.945 61.7129C151.065 58.7689 149.881 51.9529 149.561 40.4329L150.073 40.3369ZM150.233 40.3369C149.977 50.3849 150.201 57.5529 136.089 61.7449L135.801 61.2969C146.937 56.1769 146.361 49.2329 146.393 39.0249L151.353 39.4729C151.257 39.9209 150.969 40.2409 150.233 40.3369ZM192.217 45.5209C192.025 45.7129 191.513 45.8409 190.969 45.5209C189.689 46.1929 187.065 47.3449 184.889 48.1129L184.665 47.8569C186.073 46.1289 187.961 43.3449 188.729 41.9369L192.217 45.5209ZM182.553 39.6009C182.457 39.9209 182.073 40.0809 181.401 40.1769V42.2889C181.273 42.2889 180.665 42.2889 178.009 42.2889V38.4809L182.553 39.6009ZM180.569 41.0089L181.401 41.5209V58.7369L178.169 59.3129L179.609 58.1929C179.961 60.3049 178.969 61.3929 178.201 61.7769L176.537 58.1609C177.817 57.5209 178.009 57.2329 178.009 56.5289V41.0089H180.569ZM176.953 58.1289C178.425 57.7769 181.785 56.8169 185.113 55.7929L185.209 56.1769C183.993 57.1689 181.497 59.1849 178.649 61.1369L176.953 58.1289ZM164.249 52.1769C164.729 52.1769 164.857 52.1769 165.209 51.5369C165.913 50.3529 165.913 50.3529 171.673 37.7129L172.217 37.8409C170.969 41.7129 168.729 48.8169 168.281 50.4809C168.025 51.5369 167.801 52.6569 167.833 53.4569C167.865 55.1849 169.145 56.3689 169.049 59.2169C168.985 60.8489 167.929 61.8729 166.457 61.8729C165.721 61.8729 165.017 61.3929 164.793 60.2089C165.401 56.8169 165.241 53.8409 164.473 53.3289C164.025 53.0089 163.513 52.8809 162.809 52.8169V52.1769C162.809 52.1769 163.897 52.1769 164.249 52.1769ZM162.425 39.4729C170.649 40.7849 167.417 46.7369 164.313 44.3049C164.121 42.6409 163.097 40.8489 162.169 39.6649L162.425 39.4729ZM165.177 32.1449C174.041 33.3609 170.937 39.8249 167.545 37.3929C167.193 35.6009 165.977 33.6489 164.889 32.3689L165.177 32.1449ZM184.217 40.0169C185.113 48.1129 187.897 55.1529 193.081 57.9049L193.017 58.2249C191.769 58.6409 190.649 59.9209 190.137 61.8089C185.369 57.4569 184.185 50.7369 183.737 40.0809L184.217 40.0169ZM191.769 39.8249C191.385 40.1129 190.713 40.1449 189.785 39.8249C187.097 40.3369 182.713 40.6569 179.097 40.5609L179.001 40.1129C182.201 39.3129 186.201 37.7129 188.217 36.5289L191.769 39.8249ZM191.929 35.1849C191.577 35.4729 190.873 35.5369 189.881 35.1849C185.945 35.9529 179.577 36.6249 174.265 36.6889L174.169 36.2409C179.001 35.2489 185.113 33.2969 188.249 31.8249L191.929 35.1849ZM176.985 35.9529C176.889 36.1769 176.601 36.2729 176.153 36.3369V44.0169C176.153 49.6489 175.737 57.0409 169.465 62.0009L169.081 61.6489C172.409 56.3369 172.729 49.9369 172.729 43.9209V34.0329L176.985 35.9529Z" fill="white"/>
<path d="M17.0614 102.04C16.6774 102.446 16.24 102.744 15.7494 102.936C17.84 103.235 19.4294 103.982 20.5174 105.176C21.6054 106.35 22.1494 107.79 22.1494 109.496C22.1494 111.566 21.3174 113.24 19.6534 114.52C17.9894 115.8 15.8027 116.44 13.0934 116.44C10.384 116.44 8.26136 115.779 6.72536 114.456C5.18936 113.112 4.42136 111.224 4.42136 108.792C4.42136 108.664 4.42136 108.536 4.42136 108.408L4.77336 108.344C5.20003 111.523 6.52269 113.582 8.74136 114.52V95.8962C8.69869 95.3202 8.47469 94.8509 8.06936 94.4882C7.68536 94.1042 7.21603 93.9122 6.66136 93.9122H6.27736V93.5922H11.6534C13.6587 93.5922 15.2587 94.0509 16.4534 94.9682C17.6694 95.8855 18.2774 97.0909 18.2774 98.5842C18.2774 100.056 17.872 101.208 17.0614 102.04ZM10.8214 94.6162V115.096C11.5254 115.203 12.336 115.256 13.2534 115.256C15.3014 115.256 16.8907 114.712 18.0214 113.624C19.1734 112.515 19.7494 111.086 19.7494 109.336C19.7494 108.398 19.568 107.566 19.2054 106.84C18.864 106.115 18.4267 105.55 17.8934 105.144C16.4854 104.056 14.5014 103.512 11.9414 103.512C11.92 103.512 11.9094 103.512 11.9094 103.512L11.8774 103.224C11.8987 103.224 11.9094 103.224 11.9094 103.224C12.9974 103.224 13.9254 102.872 14.6934 102.168C15.4827 101.443 15.8774 100.334 15.8774 98.8402C15.8774 96.0242 14.3307 94.6162 11.2374 94.6162H10.8214ZM25.4129 115.672C25.9675 115.672 26.4369 115.48 26.8209 115.096C27.2262 114.691 27.4395 114.211 27.4609 113.656V95.9282C27.4395 95.3735 27.2262 94.9042 26.8209 94.5202C26.4369 94.1149 25.9675 93.9122 25.4129 93.9122H24.9969V93.5922H32.0049V93.9122H31.5889C30.8209 93.9122 30.2342 94.2429 29.8289 94.9042C29.6369 95.2242 29.5409 95.5655 29.5409 95.9282V115H34.1169C35.6955 115 36.9009 114.648 37.7329 113.944C38.5649 113.24 39.2582 112.195 39.8129 110.808H40.1329L38.2769 115.992H24.9969V115.672H25.4129ZM63.9576 115.672H64.2136V115.992H57.0136V115.672H57.3016C57.7496 115.672 58.0803 115.534 58.2936 115.256C58.5283 114.958 58.6456 114.68 58.6456 114.424C58.6456 114.168 58.6029 113.912 58.5176 113.656L56.4696 108.216H47.8296L45.6856 113.688C45.6003 113.944 45.5576 114.2 45.5576 114.456C45.5576 114.691 45.6643 114.958 45.8776 115.256C46.1123 115.534 46.4536 115.672 46.9016 115.672H47.1896V115.992H40.7576V115.672H41.0456C41.5789 115.672 42.1016 115.502 42.6136 115.16C43.1256 114.819 43.5416 114.318 43.8616 113.656L51.0936 96.4402C51.8829 94.7122 52.2776 93.6135 52.2776 93.1442H52.5656L61.1416 113.656C61.4403 114.318 61.8456 114.819 62.3576 115.16C62.8696 115.502 63.4029 115.672 63.9576 115.672ZM48.2136 107.256H56.0856L52.2456 96.9842L48.2136 107.256ZM76.0459 116.44C72.6752 116.419 69.9232 115.342 67.7899 113.208C65.6779 111.075 64.6219 108.27 64.6219 104.792C64.6219 101.294 65.6779 98.4775 67.7899 96.3442C69.9232 94.2109 72.7392 93.1442 76.2379 93.1442C79.0965 93.1442 81.6245 93.8695 83.8219 95.3202L84.4619 99.8322H84.1739C83.7045 97.9975 82.7552 96.5895 81.3259 95.6082C79.8965 94.6055 78.2005 94.1042 76.2379 94.1042C73.4432 94.1042 71.2032 95.0749 69.5179 97.0162C67.8539 98.9575 67.0219 101.528 67.0219 104.728C67.0219 107.928 67.8432 110.51 69.4859 112.472C71.1499 114.414 73.3365 115.416 76.0459 115.48C78.4352 115.48 80.4299 114.83 82.0299 113.528C83.7579 112.12 84.8032 109.827 85.1659 106.648H85.4219L85.0379 111.672C83.0965 114.851 80.0992 116.44 76.0459 116.44ZM95.5264 115.672H95.9424V115.992H88.9344V115.672H89.3504C89.905 115.672 90.3744 115.48 90.7584 115.096C91.1637 114.691 91.377 114.211 91.3984 113.656V95.8962C91.377 95.3415 91.1637 94.8722 90.7584 94.4882C90.3744 94.1042 89.905 93.9122 89.3504 93.9122H88.9344V93.5922H95.9424V93.9122H95.5264C94.9717 93.9122 94.4917 94.1042 94.0864 94.4882C93.7024 94.8722 93.4997 95.3415 93.4784 95.8962V113.656C93.4784 114.211 93.681 114.691 94.0864 115.096C94.4917 115.48 94.9717 115.672 95.5264 115.672ZM108.39 115.992H107.014C104.838 115.992 103.238 115.384 102.214 114.168L94.5024 104.856L102.054 95.3842C102.225 95.1709 102.31 94.9789 102.31 94.8082C102.31 94.6375 102.278 94.4882 102.214 94.3602C102.044 94.0402 101.734 93.8802 101.286 93.8802H100.966V93.5922H107.718V93.8802H107.59C106.182 93.8802 105.03 94.3815 104.134 95.3842L96.6144 104.088L105.35 114.36C106.204 115.214 107.217 115.651 108.39 115.672V115.992ZM138.958 115.672H139.214V115.992H132.014V115.672H132.302C132.75 115.672 133.08 115.534 133.294 115.256C133.528 114.958 133.646 114.68 133.646 114.424C133.646 114.168 133.603 113.912 133.518 113.656L131.47 108.216H122.83L120.686 113.688C120.6 113.944 120.558 114.2 120.558 114.456C120.558 114.691 120.664 114.958 120.878 115.256C121.112 115.534 121.454 115.672 121.902 115.672H122.19V115.992H115.758V115.672H116.046C116.579 115.672 117.102 115.502 117.614 115.16C118.126 114.819 118.542 114.318 118.862 113.656L126.094 96.4402C126.883 94.7122 127.278 93.6135 127.278 93.1442H127.566L136.142 113.656C136.44 114.318 136.846 114.819 137.358 115.16C137.87 115.502 138.403 115.672 138.958 115.672ZM123.214 107.256H131.086L127.246 96.9842L123.214 107.256ZM163.723 93.9122C163.19 93.9122 162.731 94.1042 162.347 94.4882C161.963 94.8509 161.76 95.2989 161.739 95.8322V112.344C161.739 113.582 161.814 114.755 161.963 115.864L162.027 116.44H161.739L144.299 97.8162V113.752C144.299 114.286 144.491 114.744 144.875 115.128C145.259 115.491 145.718 115.672 146.251 115.672H146.859V115.992H140.267V115.672H140.875C141.408 115.672 141.867 115.491 142.251 115.128C142.635 114.744 142.827 114.275 142.827 113.72V97.1122C142.827 95.8109 142.752 94.6482 142.603 93.6242L142.539 93.1122H142.859L160.299 111.736V95.8642C160.278 95.3095 160.075 94.8509 159.691 94.4882C159.307 94.1042 158.848 93.9122 158.315 93.9122H157.707V93.5922H164.299V93.9122H163.723ZM178.189 93.5922C181.602 93.5922 184.365 94.6269 186.477 96.6962C188.61 98.7442 189.677 101.443 189.677 104.792C189.677 108.142 188.61 110.851 186.477 112.92C184.365 114.968 181.602 115.992 178.189 115.992H167.341V115.672H167.757C168.311 115.672 168.781 115.48 169.165 115.096C169.57 114.691 169.783 114.211 169.805 113.656V95.7362C169.805 95.2242 169.591 94.7975 169.165 94.4562C168.759 94.0935 168.29 93.9122 167.757 93.9122H167.373L167.341 93.5922H178.189ZM171.885 94.5522V115.032H178.189C179.981 115.032 181.559 114.606 182.925 113.752C184.311 112.899 185.378 111.704 186.125 110.168C186.893 108.611 187.277 106.819 187.277 104.792C187.277 101.72 186.434 99.2455 184.749 97.3682C183.085 95.4909 180.898 94.5522 178.189 94.5522H171.885ZM230.241 121.56C227.532 121.56 225.313 120.696 223.585 118.968C222.305 117.688 221.462 116.078 221.057 114.136C219.03 115.672 216.545 116.44 213.601 116.44C211.276 116.44 209.153 115.939 207.233 114.936C205.334 113.912 203.841 112.515 202.753 110.744C201.686 108.974 201.153 106.979 201.153 104.76C201.153 102.542 201.686 100.547 202.753 98.7762C203.841 96.9842 205.334 95.5975 207.233 94.6162C209.132 93.6349 211.254 93.1442 213.601 93.1442C216.545 93.1442 219.137 93.8695 221.377 95.3202L222.017 99.8322H221.729C221.089 97.3575 219.638 95.6722 217.377 94.7762C216.268 94.3282 215.009 94.1042 213.601 94.1042C210.721 94.1042 208.321 95.1069 206.401 97.1122C204.502 99.1175 203.553 101.667 203.553 104.76C203.553 107.832 204.513 110.382 206.433 112.408C208.353 114.435 210.742 115.459 213.601 115.48C214.988 115.48 216.31 115.235 217.569 114.744C218.828 114.254 219.905 113.571 220.801 112.696V107.032C220.801 106.563 220.662 106.211 220.385 105.976C220.108 105.72 219.713 105.592 219.201 105.592H218.689V105.272H224.961V105.592H224.481C223.948 105.592 223.542 105.72 223.265 105.976C222.988 106.211 222.86 106.563 222.881 107.032V111.96C223.009 115.331 224.108 117.742 226.177 119.192C227.628 120.216 229.505 120.728 231.809 120.728C232.769 120.728 233.814 120.632 234.945 120.44L234.977 120.76C233.27 121.294 231.692 121.56 230.241 121.56ZM234.808 94.5842H232.76V113.656C232.76 114.211 232.952 114.691 233.336 115.096C233.741 115.48 234.232 115.672 234.808 115.672H235.192L235.224 115.992H228.216V115.672H228.632C229.186 115.672 229.656 115.48 230.04 115.096C230.445 114.712 230.658 114.243 230.68 113.688V95.9282C230.658 95.3735 230.445 94.9042 230.04 94.5202C229.656 94.1149 229.186 93.9122 228.632 93.9122H228.216V93.5922H236.856C238.797 93.5922 240.322 94.1362 241.432 95.2242C242.541 96.2909 243.096 97.6882 243.096 99.4162C243.096 101.123 242.562 102.606 241.496 103.864C240.45 105.102 239.17 105.72 237.656 105.72C237.976 105.87 238.349 106.168 238.776 106.616C239.224 107.043 239.618 107.491 239.96 107.96C241.794 110.584 242.989 112.206 243.544 112.824C244.098 113.422 244.493 113.838 244.728 114.072C244.962 114.286 245.218 114.499 245.496 114.712C245.773 114.926 246.05 115.096 246.328 115.224C246.946 115.523 247.608 115.672 248.312 115.672V115.992H246.552C245.634 115.992 244.781 115.832 243.992 115.512C243.202 115.171 242.605 114.83 242.2 114.488C241.816 114.126 241.474 113.784 241.176 113.464C240.898 113.123 240.109 112.014 238.808 110.136C237.506 108.259 236.749 107.192 236.536 106.936C236.322 106.659 236.098 106.392 235.864 106.136C235.181 105.411 234.498 105.048 233.816 105.048V104.728C233.986 104.75 234.21 104.76 234.488 104.76C234.765 104.76 235.106 104.75 235.512 104.728C238.157 104.664 239.821 103.555 240.504 101.4C240.632 100.974 240.696 100.579 240.696 100.216C240.696 99.8322 240.696 99.5869 240.696 99.4802C240.653 98.0509 240.28 96.8989 239.576 96.0242C238.872 95.1495 237.922 94.6802 236.728 94.6162C236.216 94.5949 235.576 94.5842 234.808 94.5842ZM249.319 115.672C249.874 115.672 250.343 115.48 250.727 115.096C251.132 114.691 251.346 114.211 251.367 113.656V95.7362C251.367 95.2242 251.164 94.7975 250.759 94.4562C250.354 94.0935 249.874 93.9122 249.319 93.9122H248.935L248.903 93.5922H258.279C258.94 93.5922 259.655 93.5282 260.423 93.4002C261.212 93.2722 261.767 93.1442 262.087 93.0162V97.0482H261.767V96.4722C261.767 95.9602 261.586 95.5229 261.223 95.1602C260.882 94.7975 260.466 94.6055 259.975 94.5842H253.447V104.472H258.855C259.282 104.451 259.644 104.291 259.943 103.992C260.242 103.694 260.391 103.32 260.391 102.872V102.424H260.711V107.48H260.391V107C260.391 106.574 260.242 106.211 259.943 105.912C259.666 105.614 259.314 105.454 258.887 105.432H253.447V115H258.023C259.602 115 260.807 114.648 261.639 113.944C262.471 113.24 263.164 112.195 263.719 110.808H264.039L262.183 115.992H248.903V115.672H249.319ZM286.988 93.9122H286.54C285.9 93.9122 285.292 94.0935 284.716 94.4562C284.161 94.7975 283.692 95.2349 283.308 95.7682L277.004 106.008V113.656C277.004 114.211 277.196 114.691 277.58 115.096C277.985 115.48 278.476 115.672 279.052 115.672H279.436V115.992H272.46V115.672H272.876C273.431 115.672 273.9 115.48 274.284 115.096C274.689 114.712 274.903 114.243 274.924 113.688V105.976L268.812 95.7682C268.492 95.2562 268.033 94.8189 267.436 94.4562C266.86 94.0935 266.252 93.9122 265.612 93.9122H265.164V93.5922H273.036V93.9122H272.62C272.151 93.9122 271.788 94.1255 271.532 94.5522C271.404 94.7869 271.34 95.0215 271.34 95.2562C271.34 95.4695 271.393 95.6829 271.5 95.8962L276.3 104.856L281.42 95.8642C281.527 95.6509 281.58 95.4375 281.58 95.2242C281.58 95.0109 281.505 94.7869 281.356 94.5522C281.1 94.1255 280.737 93.9122 280.268 93.9122H279.884V93.5922H286.988V93.9122Z" fill="white"/>
</svg>
