<svg width="20" height="20" viewBox="0 0 20 20" fill="none" xmlns="http://www.w3.org/2000/svg">
<path id="Vector" d="M10 0.47168C15.5138 0.47168 20 4.11168 20 8.58668C20 10.3779 19.3062 11.9904 17.8562 13.5792C15.7587 15.9942 11.0675 18.9354 10 19.3854C8.9625 19.8229 9.0825 19.1392 9.13 18.8692L9.13375 18.8467L9.27625 17.9904C9.31 17.7354 9.345 17.3392 9.24375 17.0867C9.13125 16.8079 8.68875 16.6629 8.36375 16.5929C3.5575 15.9592 0 12.5979 0 8.58668C0 4.11168 4.4875 0.47168 10 0.47168ZM6.2775 10.0792H4.37125V6.61918C4.37125 6.56768 4.35088 6.51827 4.31458 6.48173C4.27828 6.4452 4.229 6.42451 4.1775 6.42418H3.475C3.44939 6.42418 3.42404 6.42922 3.40038 6.43902C3.37672 6.44882 3.35522 6.46319 3.33711 6.48129C3.31901 6.4994 3.30464 6.5209 3.29484 6.54456C3.28504 6.56821 3.28 6.59357 3.28 6.61918V10.9767C3.28 11.0279 3.30125 11.0767 3.335 11.1104V11.1117L3.3375 11.1142L3.34 11.1167C3.37625 11.1515 3.42471 11.1708 3.475 11.1704H6.2775C6.385 11.1704 6.47125 11.0829 6.47125 10.9754V10.2754C6.47141 10.2498 6.46653 10.2244 6.45689 10.2007C6.44724 10.177 6.43301 10.1554 6.41502 10.1372C6.39703 10.119 6.37563 10.1045 6.35203 10.0945C6.32843 10.0845 6.30311 10.0793 6.2775 10.0792ZM7.26625 6.42418C7.21453 6.42418 7.16493 6.44472 7.12836 6.48129C7.0918 6.51786 7.07125 6.56746 7.07125 6.61918V10.9767C7.07125 11.0842 7.15875 11.1704 7.26625 11.1704H7.96875C8.07625 11.1704 8.1625 11.0829 8.1625 10.9767V6.61918C8.1625 6.56768 8.14213 6.51827 8.10583 6.48173C8.06953 6.4452 8.02025 6.42451 7.96875 6.42418H7.26625ZM12.095 6.42418C12.0433 6.42418 11.9937 6.44472 11.9571 6.48129C11.9205 6.51786 11.9 6.56746 11.9 6.61918V9.20668L9.90375 6.51168C9.8987 6.50512 9.89328 6.49886 9.8875 6.49293C9.88355 6.48855 9.87938 6.48313 9.875 6.47918L9.87125 6.47543C9.86696 6.47133 9.86237 6.46757 9.8575 6.46418L9.85 6.45918L9.84625 6.45668C9.8443 6.45522 9.8422 6.45397 9.84 6.45293L9.83 6.44668H9.8275L9.82375 6.44418L9.81125 6.43918L9.80625 6.43668C9.80216 6.4352 9.79798 6.43394 9.79375 6.43293H9.79125L9.7875 6.43168L9.77625 6.42918H9.76875L9.765 6.42793H9.76L9.7575 6.42668H9.04C8.9885 6.42668 8.93909 6.44705 8.90255 6.48335C8.86602 6.51965 8.84533 6.56893 8.845 6.62043V10.9779C8.845 11.0854 8.9325 11.1717 9.04 11.1717H9.74C9.84875 11.1717 9.93625 11.0842 9.93625 10.9779V8.39043L11.9363 11.0904C11.9495 11.109 11.9661 11.1251 11.985 11.1379L11.9863 11.1392L11.9988 11.1467L12.0037 11.1492C12.007 11.1511 12.0103 11.1527 12.0138 11.1542L12.0225 11.1579L12.0288 11.1604C12.0329 11.1618 12.037 11.1631 12.0413 11.1642H12.045C12.0613 11.1689 12.0781 11.1714 12.095 11.1717H12.795C12.9038 11.1717 12.9913 11.0842 12.9913 10.9779V6.61918C12.9913 6.56746 12.9707 6.51786 12.9341 6.48129C12.8976 6.44472 12.848 6.42418 12.7963 6.42418H12.095ZM16.8638 7.32043V6.62043C16.8639 6.59482 16.859 6.56943 16.8494 6.54571C16.8397 6.52199 16.8255 6.5004 16.8075 6.48218C16.7895 6.46395 16.7681 6.44945 16.7445 6.4395C16.7209 6.42955 16.6956 6.42434 16.67 6.42418H13.8675C13.8171 6.42424 13.7686 6.44397 13.7325 6.47918H13.7312L13.73 6.48168L13.7275 6.48543C13.6926 6.52124 13.6729 6.56917 13.6725 6.61918V10.9767C13.6725 11.0279 13.6938 11.0767 13.7275 11.1104L13.73 11.1142L13.7325 11.1167C13.7688 11.1514 13.8172 11.1707 13.8675 11.1704H16.67C16.7775 11.1704 16.8638 11.0829 16.8638 10.9754V10.2754C16.8639 10.2498 16.859 10.2244 16.8494 10.2007C16.8397 10.177 16.8255 10.1554 16.8075 10.1372C16.7895 10.119 16.7681 10.1045 16.7445 10.0945C16.7209 10.0845 16.6956 10.0793 16.67 10.0792H14.7625V9.34293H16.6688C16.7763 9.34293 16.8625 9.25543 16.8625 9.14793V8.44793C16.8627 8.42232 16.8578 8.39693 16.8481 8.37321C16.8385 8.34949 16.8243 8.3279 16.8063 8.30968C16.7883 8.29145 16.7669 8.27695 16.7433 8.267C16.7197 8.25705 16.6944 8.25184 16.6688 8.25168H14.7625V7.51543H16.6688C16.7763 7.51543 16.8625 7.42793 16.8625 7.32043H16.8638Z" fill="black"/>
</svg>
